<?xml version="1.0" encoding="utf-8"?>
<!-- Generator: Adobe Illustrator 27.2.0, SVG Export Plug-In . SVG Version: 6.00 Build 0)  -->
<svg version="1.1" id="_x3C_Layer_x3E_" xmlns="http://www.w3.org/2000/svg" xmlns:xlink="http://www.w3.org/1999/xlink" x="0px"
	 y="0px" viewBox="0 0 18.1 14.9" style="enable-background:new 0 0 18.1 14.9;" xml:space="preserve">
<style type="text/css">
	.st0{fill:#F36F24;}
</style>
<g>
	<path class="st0" d="M8.9,0C8,0.1,7.3,0.9,7.4,1.9c0,0.3,0.5,7.2-6.2,9.5c-0.9,0.3-1.4,1.3-1.1,2.2c0.3,0.9,1.3,1.4,2.2,1.1
		c7.5-2.6,8.8-9.7,8.5-13.1C10.8,0.6,9.9-0.1,8.9,0z"/>
	<path class="st0" d="M7.3,1.6C7,5,8.3,12.1,15.7,14.8c0.9,0.3,1.9-0.2,2.2-1.1c0.3-0.9-0.2-1.9-1.1-2.2c-6.7-2.4-6.1-9.2-6.1-9.5
		c0.1-1-0.6-1.8-1.6-1.9C8.3-0.1,7.4,0.6,7.3,1.6z"/>
</g>
</svg>
