<?xml version="1.0" encoding="utf-8"?>
<!-- Generator: Adobe Illustrator 27.2.0, SVG Export Plug-In . SVG Version: 6.00 Build 0)  -->
<svg version="1.1" id="_x3C_Layer_x3E_" xmlns="http://www.w3.org/2000/svg" xmlns:xlink="http://www.w3.org/1999/xlink" x="0px"
	 y="0px" viewBox="0 0 217.1 67.9" style="enable-background:new 0 0 217.1 67.9;" xml:space="preserve">
<style type="text/css">
	.st0{fill:#F37021;}
	.st1{fill:#72BF44;}
	.st2{fill:#FFFFFF;}
</style>
<g>
	<path class="st0" d="M124.2,39.3c0,2.8-0.8,5.3-2.4,7.4c-2.2,2.9-5.3,4.4-9.4,4.4H93.5c-4.2,0-7.3-1.5-9.4-4.4
		c-1.6-2.1-2.4-4.6-2.4-7.5V16.9h14.2v22.4c0,2.2,0.6,3.9,1.9,5.2c1.3,1.3,3,1.9,5.1,1.9c1.5,0,2.8-0.3,4-1c2.1-1.2,3.1-3.2,3.1-6.1
		V16.9h14.2V39.3z"/>
	<path class="st0" d="M217.1,51.1H203V28.7c0-2.2-0.7-3.9-1.9-5.2c-1.3-1.3-3-1.9-5.1-1.9c-2.1,0-3.8,0.6-5.1,1.9
		c-1.3,1.3-1.9,3-1.9,5.2v22.4h-14.2V28.7c0-2.8,0.8-5.3,2.4-7.4c2.2-2.9,5.3-4.4,9.4-4.4h18.9c4.2,0,7.3,1.4,9.4,4.4
		c1.6,2.1,2.4,4.6,2.4,7.5V51.1z"/>
	<path class="st0" d="M169.5,22.3c-0.6-1.1-1.4-2.2-2.6-3.3c-2-1.6-4.4-2.3-7.5-2.3h-18.9c-4.1,0-7.3,1.5-9.4,4.4
		c-0.8,1.1-1.4,2.3-1.8,3.5h14.6h5.5c6.7,0,7,5.7,7,6.4v0.1v8.3c0,2.2-0.7,3.9-1.9,5.2c-1.3,1.3-3,1.9-5.1,1.9
		c-2.1,0-3.8-0.6-5.1-1.9c-1.3-1.3-1.9-3-1.9-5.2s0.7-3.9,2-5.2c1.3-1.3,3-1.9,5.2-1.9h2.3c0,0-2-4.2-9-4.7h-2.7c-0.2,0-0.4,0-0.6,0
		c-0.2,0-0.4,0-0.5,0c-0.5,0.1-1.1,0.1-1.6,0.2c-1.7,0.4-3.3,1-4.7,2.1c-2.9,2.2-4.4,5.3-4.4,9.4c0,4.2,1.5,7.3,4.4,9.4
		c2.1,1.6,4.6,2.4,7.5,2.4h18.9c4.2,0,7.3-1.4,9.4-4.4c1.6-2.1,2.4-4.6,2.4-7.5V27.5C170.7,24.9,169.9,23,169.5,22.3z"/>
</g>
<g>
	<path class="st0" d="M57.7,3.9c-1-1.2-2.9-1.4-4.1-0.4c-0.4,0.3-9.3,7.5-18.9,0.6c-1.3-1-3.1-0.7-4.1,0.6c-1,1.3-0.7,3.1,0.6,4.1
		C41.9,16.6,53,11.7,57.3,8C58.6,7,58.7,5.1,57.7,3.9z"/>
	<path class="st0" d="M54,3.2C49,6,40.5,14.5,44,27.2c0.4,1.6,2,2.5,3.6,2.1c1.6-0.4,2.5-2,2.1-3.6c-3.1-11.4,6.9-17.2,7.3-17.4
		c1.4-0.8,1.9-2.6,1.1-4C57.2,2.9,55.4,2.4,54,3.2z"/>
</g>
<g>
	<path class="st1" d="M21.5,0.1c-1.6,0.3-2.6,1.8-2.3,3.4c0.1,0.5,2.1,11.8-8.6,16.8c-1.5,0.7-2.1,2.4-1.4,3.9
		c0.7,1.5,2.4,2.1,3.9,1.4C25,20,26,8,24.9,2.4C24.6,0.8,23.1-0.3,21.5,0.1z"/>
	<path class="st1" d="M19.1,2.9c0,5.7,3.4,17.3,16.2,20.4c1.6,0.4,3.1-0.6,3.5-2.1c0.4-1.6-0.6-3.2-2.1-3.5C25.2,14.9,25,3.4,25,2.9
		C24.9,1.3,23.6,0,22,0C20.4,0,19.1,1.3,19.1,2.9z"/>
</g>
<g>
	<path class="st0" d="M0.2,29.4C-0.3,31,0.5,32.6,2,33.1c0.5,0.2,11.3,4,10.4,15.7c-0.1,1.6,1.1,3,2.7,3.1c1.6,0.1,3-1.1,3.1-2.7
		c1-13.1-8.9-20-14.4-21.7C2.3,27.1,0.7,27.9,0.2,29.4z"/>
	<path class="st0" d="M1.5,32.9c5,2.8,16.8,5.5,25.7-4.1c1.1-1.2,1-3-0.1-4.1c-1.2-1.1-3-1-4.1,0.1c-8.1,8.6-18.2,3.2-18.6,2.9
		c-1.4-0.8-3.2-0.3-4,1.1C-0.4,30.4,0.1,32.1,1.5,32.9z"/>
</g>
<g>
	<path class="st1" d="M15.2,62.5c1,1.2,2.9,1.4,4.1,0.3c0.4-0.3,9.2-7.6,18.8-0.8c1.3,0.9,3.1,0.6,4.1-0.7c0.9-1.3,0.6-3.1-0.7-4.1
		c-10.7-7.6-21.7-2.6-26,1.1C14.3,59.5,14.1,61.3,15.2,62.5z"/>
	<path class="st1" d="M18.9,63.2c5-2.8,13.4-11.5,9.8-24.2c-0.4-1.6-2.1-2.5-3.6-2c-1.6,0.4-2.5,2.1-2,3.6
		c3.2,11.3-6.7,17.2-7.1,17.5c-1.4,0.8-1.9,2.6-1.1,4C15.7,63.5,17.5,64,18.9,63.2z"/>
</g>
<g>
	<path class="st0" d="M51.1,65.8c1.6-0.3,2.7-1.8,2.4-3.3c-0.1-0.5-1.8-11.9,9.1-16.5c1.5-0.6,2.2-2.4,1.5-3.8
		c-0.6-1.5-2.4-2.2-3.8-1.5c-12.1,5.2-13.5,17.2-12.5,22.9C48,65,49.5,66,51.1,65.8z"/>
	<path class="st0" d="M53.5,63c0.1-5.7-2.9-17.4-15.6-20.9c-1.6-0.4-3.2,0.5-3.6,2.1c-0.4,1.6,0.5,3.2,2.1,3.6
		c11.4,3.1,11.3,14.6,11.3,15.1c0,1.6,1.2,2.9,2.9,3C52.2,65.9,53.5,64.6,53.5,63z"/>
</g>
<g>
	<path class="st1" d="M72.5,37.1c0.6-1.5-0.1-3.2-1.6-3.8c-0.4-0.2-11-4.8-9.2-16.4c0.2-1.6-0.9-3.1-2.5-3.3
		c-1.6-0.2-3.1,0.9-3.3,2.4c-2,13,7.5,20.5,12.8,22.7C70.2,39.3,71.8,38.6,72.5,37.1z"/>
	<path class="st1" d="M71.4,33.5c-4.8-3.1-16.3-6.7-26,2.2c-1.2,1.1-1.3,2.9-0.2,4.1c1.1,1.2,2.9,1.3,4.1,0.2
		c8.7-8,18.4-1.9,18.8-1.6c1.3,0.9,3.2,0.5,4-0.9C73.1,36.2,72.7,34.4,71.4,33.5z"/>
</g>
<g>
	<path class="st2" d="M194.3,59.8v-2.7h-1.6v7.7h1.6v-3.3C196.1,61.5,196.1,59.9,194.3,59.8z"/>
	<path class="st2" d="M176.4,61.4c1.2,0.9,3.1,0.9,4.6,0.7c1.8-0.3,3.8-2.2,2-3.9c-1-0.9-2.9-1.1-4.2-0.9
		C176.8,57.5,173.9,59.5,176.4,61.4z M179.1,58.6c1.6-0.2,3.7,1.5,1.3,1.9C178.3,60.9,176,59.1,179.1,58.6z"/>
	<polygon class="st2" points="216,60.4 210,60.4 210,60 215.9,60 215.9,57.3 208.2,57.3 208.2,58.6 214.2,58.6 214.2,58.9 
		208.2,58.9 208.2,61.7 216,61.7 	"/>
	<path class="st2" d="M189.2,63.1c3.8-0.7,2.5-6.4-1.3-5.7C184.1,58.1,185.4,63.7,189.2,63.1z M187.9,59.1c1.4-0.8,2.6,1.4,1.3,2.2
		C187.8,62.2,186.5,59.9,187.9,59.1z"/>
	<polygon class="st2" points="205.1,58.4 197.2,58.4 197.2,59.8 203.3,59.8 202.7,65 196.1,65 196.1,66.4 206.4,66.4 206.4,65 
		204.3,65 	"/>
	<polygon class="st2" points="207.1,61.9 207.1,63.3 211.1,63.3 211.1,64.2 212.9,64.2 212.9,63.3 217.1,63.3 217.1,61.9 	"/>
	<polygon class="st2" points="174.6,64.4 177,64.4 177,67.7 178.6,67.7 178.6,64.4 180.6,64.4 180.6,67.9 182.3,67.9 182.3,64.4 
		184.6,64.4 184.6,62.9 174.6,62.9 	"/>
	<path class="st2" d="M214.2,64.6H210v-0.7h-1.8v3.8h7.9v-3.8h-1.8V64.6z M214.2,66.2H210v-0.4h4.2V66.2z"/>
	<polygon class="st2" points="188.6,63.9 187,63.9 187,67.5 194.7,67.5 194.7,66.1 188.6,66.1 	"/>
</g>
</svg>
