<?xml version="1.0" encoding="utf-8"?>
<!-- Generator: Adobe Illustrator 27.2.0, SVG Export Plug-In . SVG Version: 6.00 Build 0)  -->
<svg version="1.1" id="Ñëîé_1" xmlns="http://www.w3.org/2000/svg" xmlns:xlink="http://www.w3.org/1999/xlink" x="0px" y="0px"
	 viewBox="0 0 3258.9 3260" style="enable-background:new 0 0 3258.9 3260;" xml:space="preserve">
<style type="text/css">
	.st0{fill:#FFFFFF;}
</style>
<path class="st0" d="M3256.5,1144.5c0.4-0.5,0.7-1.1,0.7-1.7c0-0.8,0-7.5-1.9-18.1c-5.4-76.8-16.8-152-34.3-224.8
	c0.2-0.6,0.3-1.2,0.2-1.8c-1.4-6.9-3.5-13.7-5.7-20.5c-23.1-89.4-55.5-175.1-97.4-255.8c-0.1-0.4,0-0.8-0.2-1.2
	c-0.1-0.1-0.8-1.3-2-3.2c-13.7-26.1-28.2-51.7-43.9-76.6c-0.4-0.7-0.7-1.4-1.1-2.1c-0.1-0.2-0.3-0.2-0.4-0.3
	c-24-38.1-50.4-74.9-79.1-110.1c-0.1-0.1,0-0.2-0.1-0.2c-0.2-0.3-0.5-0.5-0.7-0.8c-23.4-28.7-48.4-56.4-75-83
	c-40.7-40.7-84-77.5-129.5-110.9c-0.1-0.1-0.1-0.3-0.3-0.4c-0.1-0.1-0.8-0.5-1.8-1.1c-74-53.9-153.8-98.2-238.3-133.1
	c-0.4-0.4-0.6-0.8-1.2-1c-1-0.3-2-0.5-3-0.7c-2.3-0.9-4.6-1.9-6.9-2.8c-1.1-0.6-2.2-1.2-3.4-1.8c-0.4-0.2-0.8-0.1-1.3-0.1
	c-82.5-32.7-169.1-56.5-258.8-71.6c-0.6-0.6-1.4-1.1-2.3-1.1c-0.1,0-1.6,0-4,0.1c-76.1-12.5-154.4-18.7-234-18.8
	c-0.8-0.6-1.7-1-2.8-0.7c-0.9,0.2-1.7,0.5-2.6,0.7c-78,0.2-157.2,6.3-237.1,18.2c-0.8-0.5-1.8-0.7-2.8-0.3c-0.9,0.3-1.6,0.8-2.5,1.1
	c-2.5,0.4-5,0.8-7.5,1.2c-5.6,0.6-11.2,1.2-16.9,1.9c-0.8,0.1-1.5,0.6-2,1.1C1687,35.8,1616.9,52,1546.9,72.4
	c-0.9-0.3-1.9-0.4-2.8,0.2c-0.3,0.2-1,0.6-2,1.3c-69.8,20.6-139.5,45.5-208.7,74.7c-0.5,0-1-0.2-1.5,0c-2.4,1-4.7,2.2-7.1,3.6
	c-71.7,30.6-142.7,65.9-212.7,105.7c-0.3,0.1-0.6-0.1-0.9,0.1c-2.7,1.3-5.2,3-7.6,4.8c-73.2,42-145,88.9-215.1,140.7
	c-0.2,0.1-0.5,0.1-0.7,0.2c-0.2,0.2-0.4,0.5-0.6,0.7C814.7,458.1,744,517.2,676,581.5c-0.1,0-0.1,0-0.2,0c-0.1,0.1-0.1,0.2-0.2,0.3
	c-16.2,15.3-32.2,30.7-48.1,46.6c-49.9,49.9-96.8,101.4-140.8,154.1c-0.2,0.2-0.3,0.3-0.5,0.6C429.5,850.9,377.6,921,330.6,992.5
	c-0.4,0.4-0.7,0.7-0.8,1.3c-47.4,72.3-89.8,146.2-127.2,221c-1.1,1.4-1.9,2.7-2.5,4c-0.2,0.4-0.1,0.8-0.1,1.3
	c-36.6,73.9-68.3,148.7-95,223.9c-1.5,3.1-2.9,6.2-4,9.4c-0.2,0.6,0,1.2,0.1,1.8c-25.7,74-46.7,148.3-62.7,222.3
	c-0.5,0.5-1,1-1.2,1.8c-0.5,2.6-0.9,5.3-1.3,7.9c-0.5,1.7-1,3.5-1.5,5.2c-0.1,0.6,0.1,1.2,0.3,1.7c-0.3,1.8-0.6,3.7-0.9,5.5
	c-14.9,73.7-25,147.1-30.1,219.7c-1.4,7.2-1.7,11.7-1.7,12.5c0,0.8,0.3,1.4,0.7,2c-4.7,76.9-3.9,152.7,2.6,227
	c0.1,10.4,0.7,21.1,2.4,32.1c0.1,0.7,0.5,1.1,1,1.6c7.9,71.2,21.1,140.7,39.7,208.1c0.4,2.9,0.7,4.5,0.7,4.7
	c0.1,0.7,0.6,1.2,1.1,1.6c11.7,41.5,25.3,82.3,41,122c0,0.4-0.1,0.9,0.1,1.3c0.5,1,1.1,2,1.7,3.1c17.2,43,36.9,84.8,59,125.2
	c0.2,0.5,0.3,1,0.5,1.4c0.1,0.3,0.4,0.4,0.6,0.6c45.1,82.2,100.2,158.9,165.7,228.6c0,0,0.1,0.2,0.1,0.2c0,0,0,0,0,0
	c7.9,8.4,16,16.8,24.2,25c55.4,55.4,115.6,103.8,179.7,145.6c0.6,0.6,1.1,0.9,1.2,1c0.2,0.2,0.6,0.2,0.9,0.3
	c73,47.4,151.1,86.1,233.2,116.3c1.6,0.9,2.7,1.4,2.8,1.5c0.6,0.3,1.3,0.4,1.9,0.3c81.5,29.5,166.8,50.6,254.8,63.5
	c2.7,0.9,4.4,1.3,4.5,1.3c0.8,0.2,1.6,0,2.3-0.4c78.3,11,158.6,15.6,240.3,13.7c6,0.7,9.7,0.6,10.3,0.6c0.8,0,1.4-0.4,1.9-0.8
	c81.7-2.5,164.7-11.5,248.2-26.7c10.6-0.4,21-2,31.3-5.1c0.5-0.2,1-0.5,1.4-0.8c0.1-0.1,0.1-0.2,0.2-0.3
	c76.4-15.4,153.2-36,229.7-61.8c11.4-1.9,18-5.3,19.1-5.9c0.3-0.2,0.5-0.4,0.8-0.6c0.1-0.1,0.1-0.3,0.2-0.5
	c72.8-25.5,145.2-55.6,216.9-90.4c1.9-0.5,3-0.9,3.4-1.1c0.4-0.2,0.7-0.4,1-0.7c0.1-0.1,0.2-0.3,0.3-0.5
	c79.8-39,158.5-83.7,235.5-134.1c0.1,0,0.3-0.1,0.4-0.1c0.6-0.2,1.1-0.5,1.4-0.8c0.1-0.1,0.1-0.3,0.2-0.4
	c74.5-48.9,147.2-103,217.6-162.4c0.1-0.1,0.3-0.1,0.5-0.2c0.1-0.1,0-0.2,0.1-0.2c50-42.2,98.9-86.9,146.3-134.3
	c16.2-16.2,31.9-32.5,47.5-49c0.1-0.1,0.2,0,0.2-0.1c0.1-0.1,0.3-0.2,0.4-0.4c0.2-0.2,0.3-0.5,0.5-0.8
	c66.7-70.7,127.8-144.3,183.2-220c0.1-0.1,0.2-0.1,0.3-0.2c0.3-0.3,0.6-0.8,0.8-1.3c0,0,0-0.1,0-0.1
	c54.3-74.3,103.1-150.6,146.4-228.3c0.1-0.1,0.3-0.1,0.4-0.2c0.5-0.5,0.8-1,0.9-1.7c0-0.1,0-0.3,0-0.4
	c43.5-78.4,81.4-158.1,113.5-238.5c0.1-0.1,0.3-0.2,0.5-0.3c0.4-0.4,0.8-1,0.9-1.7c0.1-0.3,0.2-1.2,0.4-2.6
	c31.9-80.2,58-161,78.4-241.7c0.1-0.1,0.3,0,0.4-0.1c0.5-0.5,0.8-1.2,0.9-1.9c0.2-1.5,0.2-3,0.3-4.6c7.9-31.9,15-63.8,21.1-95.6
	c1-4.3,2.2-8.5,3.2-12.8c0.2-0.9,0-1.8-0.4-2.5c9.3-51,16.3-101.8,20.9-152.2c0,0,0.1,0,0.1,0c0.6-0.6,0.9-1.4,1-2.3
	c0-0.6,0-2.9-0.3-6.5C3259.5,1291.6,3260.6,1217.3,3256.5,1144.5z M3245.9,1091c-7.9-20.8-21.5-45.8-44.6-71.1
	c-2.7-69-10.9-136.1-24.7-200.8c14.5,19.2,25.6,39.6,32.6,60.6C3226.9,948.2,3239.1,1018.8,3245.9,1091z M1279,431.5
	c-52.8,22.7-105.4,49.2-157.5,79.3c-21.5-62.2-34.3-117.5-36.7-160.1c62.2-35.9,125.1-67.4,188.1-94.5
	C1266.1,301.4,1267,359.9,1279,431.5z M771.6,2809.4c-63.7-8.1-125.2-21.7-183.7-40.9c3.4-80.6,20.6-153.1,43.4-215.4
	c50.9,16.6,104.3,28.4,159.7,35.4C773.3,2664.1,768,2739.1,771.6,2809.4z M1856.2,793.3c-29.9-6.4-61.1-10-93.3-11
	c-20.3-64.8-30.3-137.8-30.9-212.4c38.1,1.6,75.2,6.3,110.7,14.2C1836.6,663,1842.8,735.6,1856.2,793.3z M1163.3,2563.4
	c-61.4,12.8-122,20.9-181.3,24.4c8.6-78.7,27.1-148.8,53.3-207.7c49.4-2.7,99.9-9.4,151.1-19.8
	C1169.5,2418.6,1162.1,2488.9,1163.3,2563.4z M1509.9,2238.7c-51.3,25.9-102.9,48.1-154.4,66.7c3-24,7.8-46,14.4-65.5
	c7.6-22.4,17.5-40.9,29.5-55.6c41-14.6,82-32,122.8-52.1c-3.4,7.6-6.2,16-8.2,25.5C1509,2180.4,1507.8,2207.9,1509.9,2238.7z
	 M2188.6,1207.9C2188.6,1207.8,2188.6,1207.8,2188.6,1207.9c1.3-47.8,18-91.2,43.4-129.1c1.1,37-0.7,74.9-5.4,113.6
	c-16.9,20-29.8,41.9-38.6,66C2188.8,1241.3,2189.2,1224.5,2188.6,1207.9z M2225.1,1204.6c-5.1,37.8-12.9,76.2-23.3,114.9
	c-11.6,10.8-20.1,22-26,31.9c1.3-6.4,2.7-12.8,3.9-19.3c2.4-13.7,4.2-27.3,5.6-40.8c0-0.1,0.2-0.1,0.2-0.3
	C2188.9,1274.9,2196.3,1241.5,2225.1,1204.6z M2095.7,1589.8c16.3-6.7,47.2-12.6,101.3-3.6c-29.5,51.1-62.6,101.6-99.2,151.1
	c-34-16.4-62.3-24.7-82.1-24.6C2045.2,1672.5,2071.9,1631.4,2095.7,1589.8z M2007,1713.4c-0.7,0.1-1.4,0.3-2.1,0.5
	c28.1-37.9,53.2-76.1,75-114.5c0.7-0.7,2.2-2.2,4.9-3.9C2061.6,1635.3,2035.6,1674.7,2007,1713.4z M2091.2,1584.3
	c-1.5,0.6-2.8,1.3-4.1,1.9c18.4-33.5,34.4-67.1,47.9-100.7c3.3-6.5,8.5-13,15.2-19.2C2133.2,1505.8,2113.5,1545.3,2091.2,1584.3z
	 M2143.7,1463.4c10.1-27.3,18.5-54.6,25.2-81.9c0.1-0.1,0.2-0.2,0.3-0.3c0.1-0.3,7-24.3,29-48.5c-11.3,39.9-25.4,80.1-42.2,120.3
	C2151.5,1456.3,2147.4,1459.8,2143.7,1463.4z M2173.1,1330.9c-15.3,87.6-48.7,176.5-98.6,264.4c-0.1,0.1-0.3,0.3-0.3,0.3
	c-0.1,0.1,0,0.3-0.1,0.4c-52.2,91.8-122.5,182.4-209.4,269.4c-65.4,65.4-132.9,121.3-201.3,167.2c-0.1,0.1-0.2,0-0.3,0.1
	c-0.1,0.1-0.2,0.2-0.4,0.4c-37.3,25-74.9,46.9-112.6,65.9c0,0-0.1,0-0.1,0c-0.1,0-0.1,0.1-0.2,0.1c-73.3,36.8-146.9,62.1-219.6,74.8
	c-46.2,8.1-91.1,10.6-134.1,8.1c-25.1-3.5-46.5-11.3-64.1-20.4c-4.6-3.3-9.4-6.3-14.4-9.2c-4.2-3.8-8.2-8-12-12.5
	c-1.8-2.7-5.3-7.7-10.4-14.3c-4.7-7.4-9-15.6-12.9-24.5c-4.6-18.7-7.3-38.7-8.2-59.8c0-0.1,0-0.2,0-0.3c0,0,0-0.1,0-0.2
	c-0.8-19.4-0.1-39.7,2-60.7c0.1-0.3,0.4-0.6,0.3-0.9c0-0.3-0.1-0.7-0.1-1c2.6-24.7,7.1-50.3,13.5-76.7c0.6-0.6,0.9-1.4,1-2.2
	c0-0.2,0-0.8,0-1.5c7.6-30.3,17.6-61.6,29.9-93.4c0,0,0,0,0,0c0.5-0.5,0.9-1.3,1-2.1c0-0.1,0-0.4,0-0.6
	c12.8-32.8,27.9-66.1,45.2-99.5c0.1-0.2,0.3-0.4,0.4-0.6c0-0.1,0.1-0.4,0.3-0.7c55.4-106.4,132.8-213.6,225.8-306.7
	c0.1-0.1,0.1-0.1,0.2-0.2c208.2-208.2,516.7-345.8,702.9-313.8c26.5,9.8,47.7,23.3,62.3,40.2c9.4,15,16.9,32.5,20.8,54.1
	C2184.5,1224.2,2182.5,1276.6,2173.1,1330.9z M2000.9,1721.9c-29.6,39.5-62,78.1-97,115.5c-0.6-0.4-1.2-0.8-1.7-1.1
	c34.7-36.9,66.4-74.5,95.1-112.4C1998.1,1723.2,1999.3,1722.6,2000.9,1721.9z M1899.1,1842.3c-9.3,9.9-18.7,19.7-28.4,29.4
	c-26.7,26.7-54.1,51.8-82.1,75.7c-0.1-1.3,0-2,0.1-2.4c27.1-23.4,54-48.2,80.5-74.7c9.6-9.6,19-19.3,28.2-29
	C1898,1841.5,1898.5,1841.9,1899.1,1842.3z M1782.8,1952.3c-38.2,32.3-77.5,61.9-117.4,88.8c0.7-1.5,1.4-2.5,1.7-2.9
	c38.9-26.1,77.4-55.5,115.4-87.9C1782.6,1951,1782.6,1951.6,1782.8,1952.3z M1656.9,2044.9c-0.2,0.7-0.4,1.5-0.6,2.3
	c-38.1,25.2-76.7,47.9-115.7,68.2c3.7-4.2,7.8-7.7,12.4-10.4C1587.8,2087.5,1622.5,2067.5,1656.9,2044.9z M1338,2179.3
	c0.1,0,0.2-0.2,0.4-0.2c25.2-4.7,50.4-10.9,75.8-18.4c-6.7,5.2-13.1,11.2-18.9,18.1c-39.4,14-78.7,25.3-117.6,33.9
	C1310.3,2183.4,1337.5,2179.3,1338,2179.3z M1264.2,2215.5c-39.4,8.1-78.3,13.5-116.5,15.9c31.6-23.1,66.5-37.8,103.9-42.2
	c0.2,0,0.3-0.2,0.4-0.2c17.4-0.8,35-2.2,52.9-4.6C1293.1,2190.8,1279,2200.6,1264.2,2215.5z M1443.7,2151.2
	C1443.7,2151.2,1443.7,2151.2,1443.7,2151.2c29.4-10.1,58.9-22,88.2-35.8c-1.7,2.2-3.2,4.6-4.7,7.1c-39.3,19.8-78.9,37-118.4,51.6
	C1419.2,2163.9,1430.8,2156.3,1443.7,2151.2z M1993.5,1071.3c-13.2,1.3-26.8,3.2-40.6,5.5c-0.1,0-0.1-0.1-0.2-0.1
	c-0.5,0-22.9,0.7-55.3-9c25.2-3.5,49-5.4,71-5.8C1978.1,1066.2,1986.5,1069.2,1993.5,1071.3z M1986.2,1061.9
	c3.3,0.1,6.5,0.1,9.7,0.2c18.6,0.7,36.1,2.5,52.4,5.4c1.2,0.6,2.4,1.2,3.6,1.7c-11.9-0.4-24.2-0.2-36.7,0.4c0,0,0,0,0,0
	C2014.8,1069.6,2003.8,1068.2,1986.2,1061.9z M1928.5,1081.6c-13.3,2.8-26.9,6.1-40.6,9.8c-0.2,0-0.4-0.1-0.6-0.1
	c-32.2,8.4-62.8,6.7-91.4-2c30.3-8.5,59.4-14.9,87.1-19.4C1900.9,1076.4,1916.5,1079.8,1928.5,1081.6z M1847.9,1103.3
	c-23.4,7.6-47.2,16.4-71.1,26.4c-0.6,0-1.2-0.1-1.8,0.3c-0.5,0.3-30.4,17.4-84.3-3.8c32.1-13.4,63.5-24.6,93.8-33.6
	C1804.7,1099.8,1825.9,1103.7,1847.9,1103.3z M1743.6,1144.1c-25.3,11.5-50.7,24.2-76,37.9c-0.9-0.1-1.7,0.1-2.5,0.7
	c-0.4,0.3-29.7,21.7-83.2-2.9c33.3-19.1,66.5-35.6,99-49.6C1706.8,1141.6,1727.8,1144.6,1743.6,1144.1z M1638.7,1198.3
	c-36.4,21.1-72.3,44.4-107.1,69.6c-0.1,0-0.3-0.1-0.4,0c-0.2,0.1-14.7,3.4-52.1-20.9c31.8-23.5,63.8-44.5,95.7-63
	C1601.6,1197.2,1623.1,1199.9,1638.7,1198.3z M1523,1274.2c-36.4,26.9-71.5,55.8-104.6,86.5c-10.3-6.8-23.5-17.4-38.7-30.8
	c30.8-28.9,62.1-55.1,93.7-78.7C1498,1267.5,1513.8,1272.8,1523,1274.2z M1413.4,1365.3c-8.4,7.9-16.6,15.8-24.7,23.9
	c-0.1,0.1-0.1,0.1-0.2,0.2c-25.3,25.3-49.3,51.7-72.2,78.7c-2.4-7.9-8.9-22.3-26.4-43.8c19.9-23.4,41.2-46.6,64.1-69.6
	c0.1-0.1,0.1-0.1,0.2-0.2c6.9-6.9,13.8-13.6,20.7-20.2C1389.9,1347.7,1403,1358.3,1413.4,1365.3z M1311,1474.5
	c-27.8,33.4-53.7,67.9-77.4,102.9c-0.3-7.2-2-17-7.5-28.7c-3.2-6.8-7.2-14.4-12.6-23.1c21.4-32,45.4-64.1,72-95.9
	C1307.2,1456.5,1310.5,1471,1311,1474.5z M1220,1551.5c10.4,22.1,6.1,36.9,6,37.1c0,0,0,0,0,0c-20.6,31.1-39.4,62.6-56.4,94
	c-0.3-12.4-3.9-30.8-16.4-54.9c16.3-31.7,34.8-63.9,56.1-96.1C1213.8,1539,1217.2,1545.6,1220,1551.5z M1161,1699
	C1161,1699,1161,1699,1161,1699c-14.9,28.8-28.3,57.6-39.9,86c-1.2-12.7-4.5-31.6-13.6-53.5c11.6-31.4,25.6-63.6,42-96.4
	C1169.7,1676.6,1161.2,1698.6,1161,1699z M1114.9,1800.8c-10.1,26.1-18.7,51.8-25.8,76.9c-1.6-12.2-4.9-28.7-11.7-46.9
	c6.7-28.7,15.6-58.6,26.6-89.5C1115.3,1772.4,1115.1,1796,1114.9,1800.8z M1083.9,1897.6c-4.9,19.7-8.7,39.1-11.6,57.9
	c-2.5-10.9-5.9-21.6-10.4-32.2c2.4-25.1,6.5-51.8,12.6-79.8C1083,1870.5,1083.9,1892,1083.9,1897.6z M1069.4,1978.7
	c-1.4,13.5-2.2,26.7-2.4,39.6c-1.8-4.8-4-10.2-6.6-16.1c-0.1-1.1-0.2-2.1-0.3-3.2c-1-18.6-0.9-38.8,0.6-60.3
	C1065.1,1951.7,1068,1965,1069.4,1978.7z M1068.4,2058.6c-2.4-10.6-4.6-21.5-6-33.2c3.3,9.5,4.7,15.5,4.9,16.6
	C1067.5,2047.5,1067.9,2053.1,1068.4,2058.6z M1060.9,2055.7c-16.5-27.5-39.1-52.6-66-74.4c-8.4-24.8-14.7-50.6-18.7-77.4
	c41.4,33.7,64.9,72,77.6,99.8C1055,2022.2,1057.4,2039.6,1060.9,2055.7z M1068.4,2084.4c0.1,0.2,0.3,0.3,0.5,0.4
	c2,5.9,4,11.7,6.4,17.1c-11.5-12.7-25.9-27-43.1-40.7c-13.2-21.4-24.1-44.1-33-67.8C1029.5,2019.8,1053.4,2050.7,1068.4,2084.4z
	 M1089.7,2129.5c1.6,2.5,3.2,5,4.9,7.3c-6.8-5.7-12.1-10.9-15.7-14.7c-12.1-12.8-23.2-26.4-33.2-40.5
	C1065.4,2099.7,1080.3,2117.3,1089.7,2129.5z M1083.2,2136.1c-29.6-11.1-63.2-17.2-99.2-18.1c-23.3-14.2-45.2-30.6-65.6-49.2
	C983.1,2076.2,1040.1,2099.1,1083.2,2136.1z M1104.5,2152.8c3.8,2.7,7.9,5.4,12.3,8c0.4,0.4,0.8,0.8,1.3,1.2
	c0.5,0.4,1.1,0.5,1.8,0.6c1.1,0.7,2.3,1.3,3.4,2c-16.7-3.3-33.1-4.7-49.4-5.2c-27.1-8.9-53.1-20.2-77.6-34
	C1036.7,2127.7,1073.7,2137,1104.5,2152.8z M1140.6,2175.8c-10.8-1.8-21.4-4-31.8-6.6C1119.3,2170.8,1129.9,2173,1140.6,2175.8z
	 M2169.2,1125.6c0-0.1,0-0.2,0-0.3c-10.6-26.1-17.7-52.7-21.3-79.6c11.5,28.2,20,57.9,25.7,88.8
	C2172.2,1131.4,2170.7,1128.5,2169.2,1125.6z M2153.9,1102.3c-2.5-3.2-5-6.4-7.6-9.4c-0.1-0.1,0-0.2-0.1-0.3
	c-0.4-0.4-36-40.6-50.4-139.7c16.9,22.8,31.3,47.2,43.3,72.9C2140.9,1051.5,2146,1077.1,2153.9,1102.3z M2123.4,1069.5
	c-7.9-7.4-16-14.4-24.4-21c-33.9-45-53.8-96.3-63.7-161.4c6.6,5.8,13.1,11.7,19.4,18c11.8,11.8,22.6,24.2,32.8,37
	C2095.2,1004.6,2110.9,1045.5,2123.4,1069.5z M2119.5,1082.9c-3.2-1.6-6.6-3-10-4.5c-0.2-0.2-0.3-0.4-0.5-0.6
	c-0.7-0.3-35.7-17.4-73.1-61.7c20.6,10.5,40.1,22.8,58.3,37C2101.8,1063.4,2110.3,1073.3,2119.5,1082.9z M2081.7,1068.5
	c-9.9-2.9-20.2-5.5-31.3-7.4c-38-17.4-71-43-99-76.3c24.4,6.1,47.9,14.2,70.2,24.4C2043.6,1037.6,2065.6,1056.7,2081.7,1068.5z
	 M2029.8,1058.2c-10.8-1.3-21.9-2.3-33.6-2.7c-8.5-0.3-17.3-0.4-26.4-0.2c-29.1-13.1-68.7-37.8-108-83.9
	c27.1,1.5,53.5,5.1,78.9,10.9C1966,1014.2,1995.8,1039.6,2029.8,1058.2z M1955.4,1055.7c-22.4,1-46.4,3.4-71.7,7.4
	c-35.5-13-79.6-38.6-120.3-88.5c30.5-3.5,60.4-4.8,89.5-3.6C1889.1,1014.9,1926,1040.7,1955.4,1055.7z M1870.8,1065.3
	c-27.4,4.9-56.2,11.5-86.1,20.3c-46.3-17.1-87.2-51.9-121.5-91.6c31.1-8.4,61.8-14.5,92.1-18.4
	C1793.8,1023.8,1835.6,1050.6,1870.8,1065.3z M1774.3,1088.8c-29.9,9.2-60.8,20.4-92.2,33.8c-32.3-14.5-72.3-42.4-119.1-94.2
	c31.1-13,62.3-23.8,93.2-32.5C1689.5,1034.9,1729.3,1069.9,1774.3,1088.8z M1672.9,1126.5c-32.3,14.2-65.1,30.7-98.1,49.7
	c-15.6-8.1-33.1-19.8-52.4-37.1c-20-17.9-40.4-38.3-61-60.7c31.4-18,63.2-33.8,95-47.3C1601.6,1081.7,1640.7,1110.6,1672.9,1126.5z
	 M1518,1144.2c18.1,16.2,34.7,27.9,49.7,36.2c-31.5,18.5-63,39.4-94.4,62.7c-26-17.8-62-48.3-110.5-100
	c30.4-22.5,61.4-42.9,92.7-61.1C1476.6,1104.9,1497.5,1125.8,1518,1144.2z M1467.7,1247.2c-31.3,23.5-62.4,49.5-92.9,78.2
	c-30.5-27.3-68.1-64.6-106.3-103.5c28.8-27.1,58.5-52.1,88.9-75C1405,1197.9,1441,1228.7,1467.7,1247.2z M1369.9,1330
	c-6.8,6.5-13.6,13.1-20.4,19.9c-0.1,0.1-0.1,0.1-0.2,0.2c-22.8,22.8-43.9,45.8-63.7,69.1c-20.3-24-56.4-61.6-102.9-106.7
	c19.4-22.9,39.8-45.4,61.7-67.3c6.3-6.3,12.8-12.5,19.3-18.6C1301.6,1265.4,1339.2,1302.6,1369.9,1330z M1281.2,1424.4
	c-26.5,31.5-50.3,63.3-71.6,95c-16.4-24.8-44.6-58.9-98.9-111.3c20.4-30.7,43-61,67.7-90.5
	C1225.1,1362.9,1261.2,1400.7,1281.2,1424.4z M1205.5,1525.4c-21.1,31.9-39.7,63.7-56,95.2c-3.6-6.4-7.8-13.1-12.7-20.3
	c-14.7-21.1-40.8-53.4-83.9-92.6c15.8-31.6,33.9-63,54.1-94C1162.1,1467,1189.8,1501,1205.5,1525.4z M1131.2,1604.1
	c5.9,8.4,10.6,16.3,14.5,23.7c-16.4,32.2-30.4,64-42.1,95c-7-15-16.7-31.2-30.2-47.7c-20.1-24.5-40.7-46-63.5-66.2
	c11-31.6,24.3-63.3,39.8-94.9C1091.6,1552.1,1116.9,1583.5,1131.2,1604.1z M1068.3,1679.3c15,18.3,25.1,36.3,32,52.7
	c-11.1,30.4-20.1,59.9-27.1,88.3c-5.5-12.5-12.6-25.6-22-38.5c-19.1-26.1-42.1-50.5-68.5-73.2c6.1-30.7,14.4-61.8,25-92.9
	C1029.3,1635.1,1049,1655.8,1068.3,1679.3z M1045.8,1785.7c11.2,15.3,19,31.1,24.6,45.8c-6.5,28-11.1,54.7-13.9,79.9
	c-16.8-33.7-44.5-67.4-85.5-104.8c1.1-29.6,4.5-59.8,10.1-90.5C1005.9,1737.9,1027.7,1761,1045.8,1785.7z M1055.2,1924.5
	c-2,22.2-2.8,43.2-2.2,62.6c-14.7-28-39-62.5-78.1-92.8c-3.3-25.5-4.6-51.8-4.1-78.6C1012.8,1854.5,1040,1889.3,1055.2,1924.5z
	 M985.3,1973.5c-24.2-18.1-51.7-33.5-81.6-45.4c-29.2-11.6-60.5-20.8-92.7-27.5c-9-27.8-15.4-57-19.2-87.3
	c85.2,23.9,143.1,59,176.8,84.6C972.2,1924,977.7,1949.2,985.3,1973.5z M901.2,1934.3c32.8,13,62.3,30.5,88,51
	c7.9,22.8,17.7,44.7,29.4,65.6c-12.3-8.9-25.7-17.3-40.2-24.5c-27-13.5-70.8-31.1-128.5-40.2c-14.9-24.4-27-50.6-36.5-78.2
	C843.9,1914.5,873.5,1923.3,901.2,1934.3z M975.4,2032.3c19.3,9.6,36.6,21.3,51.8,33.5c9.5,15.4,20.2,30,31.9,44
	c-41.7-26.9-92.5-43.3-148.7-48.4c-2-1.9-4.1-3.8-6.1-5.7c-19-19-35.5-39.8-49.7-62C908.6,2002.9,949.7,2019.5,975.4,2032.3z
	 M907.6,2067.8c19.8,18.9,41.1,35.6,63.8,50.2c-32.4,0.3-66.5,4.5-101.1,13.1c-24.3,6-48,14.1-71.3,23.8
	c-29.4-18.1-56.8-39.3-81.8-63.8c22.8-7.2,45.9-12.9,69.3-17.1C828.5,2066.5,869.3,2064.5,907.6,2067.8z M871.9,2137.6
	c37.9-9.4,75.1-13.7,110.1-13c22.7,13.7,46.7,25.2,71.7,34.6c-54.2,2-105.7,18.1-152.5,43.1c-33.5-11.3-65.2-25.7-95.1-43.3
	C827.7,2150.5,849.5,2143.2,871.9,2137.6z M1072.7,2166c21,6.8,42.7,12.2,65,16.1c-30,3.7-74.6,14.9-123.4,46
	c-36.1-4.5-71-12.1-104.3-22.6C959.8,2179.7,1014.8,2164.4,1072.7,2166z M1175.4,2187.4c0.1,0,0.2-0.1,0.3-0.1
	c6.5,0.6,13.1,1,19.6,1.4c0.9,0.1,1.7,0.3,2.5,0.4c0.2,0,0.3-0.2,0.5-0.2c6.4,0.3,12.9,0.5,19.4,0.6c-29.3,8.3-56.7,22.8-82,42.8
	c-37.9,1.9-75,0.9-111-3C1106.5,2180,1174.4,2187.2,1175.4,2187.4z M1138.4,2238.7c38.6-2,78-7,117.9-14.8
	c-23.9,26.8-48.7,67.5-67.7,129.3c-50.9,10.6-101.2,17.3-150.3,20.2C1064.8,2316.2,1098.8,2270.5,1138.4,2238.7z M1268.6,2221.3
	c39.5-8.3,79.5-19.3,119.6-33.1c-9.8,13.8-18,30.3-24.6,49.6c-7.1,20.9-12.2,44.6-15.3,70.2c-51,18.1-101.9,32.7-152.1,43.5
	C1216.6,2287.2,1243.6,2246.7,1268.6,2221.3z M1520.5,2159.2c2.7-12.5,6.6-23.1,11.6-31.9c41.4-20.9,82.4-44.7,122.9-71.2
	c-1.5,16.6,0.7,44.3,14.6,89.5c-50.3,33.4-101.5,63.4-153,89.7C1514.7,2206.1,1515.9,2180.4,1520.5,2159.2z M1662.4,2051.2
	c41.6-27.7,82.5-58.3,122.3-91.7c4.1,13,14.3,34.9,37.8,71.3c-47.9,40.4-97.1,77.5-147.1,111C1660.3,2092,1660,2065,1662.4,2051.2z
	 M1790.1,1954.8c29.1-24.7,57.6-50.7,85.4-78.5c10-10,19.7-20.1,29.3-30.3c10.2,7,29.6,21.2,62,47.9c-11.9,12.6-23.9,25.1-36.3,37.4
	c-33.5,33.5-67.9,65.1-102.9,95C1802.1,1986.8,1793.1,1965.6,1790.1,1954.8z M1909.5,1841.1c36.8-39.3,70.5-80,101.3-121.6
	c13.6-1.4,38.6,2.1,82.9,23.3c-37.3,50-78,98.9-122.3,146.3C1939.5,1862.7,1920.2,1848.5,1909.5,1841.1z M2099.9,1745.7
	c26.9,13.2,82,40.4,152.9,82.6c-45.1,60.6-94.5,120-148.2,177.4c-55.6-50.7-97.3-86.8-128-112.3
	C2021.3,1845.5,2062.4,1796.2,2099.9,1745.7z M2103.9,1740.3c36.9-50.1,70.4-101.2,100.1-152.9c54,9.8,104.7,23,173.6,51
	c-35.9,62.4-76.3,124.1-120.9,184.5C2186.3,1780.9,2131.4,1753.7,2103.9,1740.3z M2200.6,1580c-49.4-8.6-80.6-5.2-99.7,0.7
	c23-40.9,43.2-82.1,60.5-123.5c25.9-18.4,66.6-32.1,116.2-32.2C2255.6,1476.9,2229.9,1528.7,2200.6,1580z M2165.9,1446.4
	c16.8-41.1,30.6-82.3,41.7-123.1c8.4-7.7,18.3-15.1,30.3-21.4c26.4-13.9,55.7-27.4,95.9-37.1c-14.2,50.9-32,102.1-53.5,153.4
	C2233.2,1417.9,2193.5,1429.7,2165.9,1446.4z M2234.9,1296.1c-9.2,4.8-17.2,10.3-24.4,16c10.2-39.4,17.6-78.5,22.3-116.9
	c26.2-30.1,67.7-61.6,133.2-87.7c-6.4,49.3-16.4,99.6-30.2,150.2C2293.2,1267.5,2262.5,1281.6,2234.9,1296.1z M2234.1,1183.9
	c4.2-39,5.6-77.2,4-114.4c35.9-49.7,86.4-89,135.4-115.3c1.7,47.3-0.5,95.9-6.5,145.5C2309.9,1122,2265.8,1149.9,2234.1,1183.9z
	 M2237.8,1059.1c-2.1-37.5-7.2-73.9-15.5-108.9c35.9-53.7,80.3-100.2,133-139.5c9.9,43.7,15.8,89.2,17.9,136.1
	C2324.8,972.2,2274.7,1010.7,2237.8,1059.1z M2231.6,1067.4c-22.2,31.2-38.6,66.4-45.7,104.7c-1.5-14.4-3.7-28.6-6.4-42.5
	c0-0.3,0.2-0.5,0.1-0.7c-0.2-0.9-15.5-84.7,37.6-170.5C2225.1,993.3,2229.9,1029.8,2231.6,1067.4z M2170.9,1092
	c-6.6-23.5-15.1-46.1-25.1-67.8c-3.9-57.6,8.1-116.3,35.3-174.2c14.5,31.3,25.9,64.3,34.2,98.9
	C2179.7,1003.1,2171.6,1057.2,2170.9,1092z M2138.5,1009.1c-12.6-24.6-27.4-47.9-44.5-69.7c-6-51,2.9-115.6,28.9-184.3
	c21.3,27,39.5,56.2,54.5,87.2C2150.4,897.7,2137.4,953.8,2138.5,1009.1z M2086.6,930.5c-8.6-10.3-17.5-20.4-27.1-30
	c-8.2-8.2-16.8-15.8-25.6-23.1c-6.1-46.3-3.6-116,17.3-194.8c12.4,10,24.4,20.5,35.8,31.9c11,11,21.2,22.7,30.9,34.6
	C2092.1,816.1,2082.5,879.3,2086.6,930.5z M2082,1036c-17.7-12.3-36.4-23.1-56-32.2c-29-38.1-57.7-93-71.2-169.8
	c26.1,12.8,50.5,28.4,72.9,46.8C2036.2,942.8,2053.3,992.4,2082,1036z M2013.9,998.7c-22.2-9.4-45.3-16.9-69.5-22.4
	c-35.1-44.9-61.6-103.1-79.3-174.2c28.8,6.8,56.2,16.3,82.2,28.4C1959.7,904.9,1986.1,959.5,2013.9,998.7z M1934.5,974.2
	c-25.3-5.2-51.5-8.4-78.4-9.6c-33.2-40.8-65.8-97.4-91.1-175.7c32,1.2,63.1,4.9,92.8,11.4C1875,870.6,1900.6,928.7,1934.5,974.2z
	 M1847.4,964.2c-29-0.8-58.8,0.7-89.1,4.4c-40-51.2-72.7-109.5-98-174.4c33.3-4.4,65.9-6.2,97.6-5.5
	C1782.8,866.1,1814.6,922.8,1847.4,964.2z M1750.6,969.5c-30.3,4.1-61.1,10.4-92.2,18.9c-55-65.5-92.1-141.8-105.6-171.9
	c34-9.6,67.6-16.7,100.7-21.4C1678.6,859.9,1711,918.1,1750.6,969.5z M1651.6,990.4c-31,8.8-62.1,19.7-93.2,32.8
	c-17.3-19.5-35.5-42-54.5-68.5c-21.5-29.8-43.1-61.7-64.4-97.6c35.7-15.5,71.5-28.5,106.9-38.8
	C1559.5,847.7,1596.4,924,1651.6,990.4z M1498.4,958.6c18.6,25.9,36.4,48.1,53.4,67.4c-31.8,13.6-63.5,29.5-94.9,47.5
	c-41.9-46.1-84.4-100.7-125.9-161.4c33.9-19.8,68.1-37.2,102.3-52.3C1454.8,896.1,1476.7,928.4,1498.4,958.6z M1451,1076.9
	c-31.4,18.3-62.4,38.7-92.8,61.3c-50.4-54.2-95.7-107.2-134.4-154.9c33.2-24.9,67.1-47.4,101.4-67.7
	C1366.6,976.1,1409.1,1030.7,1451,1076.9z M1352.8,1142.1c-30.4,22.9-60.2,48-89,75.1c-30.8-31.5-61.7-63.8-89.3-92.6
	c-19.8-20.7-37.9-39.6-53.1-55.3c31.5-29.6,63.9-57.1,97.1-82.2C1257.1,1034.9,1302.4,1087.9,1352.8,1142.1z M1169.6,1129.2
	c27.6,28.8,58.5,61.1,89.3,92.6c-6.5,6.2-12.9,12.3-19.3,18.6c-21.9,21.9-42.4,44.4-61.8,67.3c-43.3-41.9-95.1-89.7-151.2-138.7
	c21.3-25.2,43.8-49.9,67.8-73.9c7.3-7.3,14.7-14.3,22-21.3C1131.7,1089.6,1149.8,1108.5,1169.6,1129.2z M1173.5,1312.9
	c-24.7,29.5-47.3,59.8-67.8,90.6c-43.8-41.7-101-87-158.6-129.2c22.7-34,47.8-67.4,75.2-100.1
	C1078.5,1223.3,1130.3,1271.1,1173.5,1312.9z M1102,1409.1c-20.3,31-38.5,62.4-54.4,94c-39.7-35.5-93.2-76.3-164.8-119.7
	c17.8-34.8,38-69.4,60.5-103.5C1001.1,1322,1058.4,1367.4,1102,1409.1z M1044.6,1509.3c-15.6,31.5-28.9,63.2-40,94.8
	c-28.4-24.6-60.4-47.3-99.3-70.7c-15.1-9.1-39.5-23.2-70.6-39.1c12.6-34.9,27.7-69.9,45.2-104.8
	C951.8,1433,1005.2,1473.9,1044.6,1509.3z M901.9,1539.1c39.5,23.8,71.7,46.8,100.4,71.9c-10.6,31.1-19.1,62-25.3,92.6
	c-47-39.2-105.1-72.9-173.5-101c7.2-33.6,16.9-67.7,29-101.9C863,1516.3,887,1530.1,901.9,1539.1z M975.4,1711.1
	c-5.8,30.5-9.5,60.6-10.9,90.2c-37.6-31.9-102.4-65.6-176-91.5c1.9-32.8,6.5-66.5,13.5-100.6
	C870.7,1637.5,928.7,1671.6,975.4,1711.1z M964.3,1809.7c-0.9,26.9,0.1,53.3,3.1,78.9c-35.2-25.8-93-59.6-176.5-82.6
	c-3.2-28.9-4-58.8-2.6-89.5C862.8,1743,928.3,1777.5,964.3,1809.7z M803.6,1899.1c-68.6-13.3-140.9-15.2-206.4-4.5
	c-11.1-34.3-19.1-70.3-23.7-107.6c83.5-1.4,153.6,8.8,211.5,24.3C788.6,1841.8,794.8,1871.1,803.6,1899.1z M805.9,1906.4
	c9.2,27.6,21,53.9,35.5,78.5c-55-7.7-122.1-7.5-199,10.6c-17.5-29.6-31.8-61.2-43.1-94.4C664.9,1890.5,737.4,1892.6,805.9,1906.4z
	 M845.8,1992.2c15.2,24.5,33.1,47.4,53.8,68.1c0.1,0.1,0.1,0.1,0.2,0.2c-36.4-2.4-74.9-0.2-114.5,7c-24.7,4.5-49.2,10.7-73.4,18.5
	c-25.4-25.7-47.3-54-65.8-84.4C723.6,1983.5,791,1983.9,845.8,1992.2z M791.4,2158.2c-63.4,27.6-122.4,68.3-174.5,120.2
	c-36.6-22.7-70.7-49.4-101.7-80.4c59.5-46,125.6-81.7,194.8-104.4C734.9,2118.4,762.2,2139.9,791.4,2158.2z M798.6,2162.4
	c29.7,17.9,61.3,32.6,94.5,44.2c-59.6,33.5-111.1,81.1-150.2,130.9c-42.4-14.3-82.6-32.8-120.2-55.5
	C675.2,2230,734.7,2189.5,798.6,2162.4z M901.9,2209.6c33.2,11,68,18.9,104.1,23.8c-41.2,28-84.8,70.6-124.7,135.2
	c-45.6-5.7-89.5-15.3-131.4-28.9C789.4,2289.8,841.6,2242.4,901.9,2209.6z M1015.9,2234.9c36,4.3,73.1,5.8,111.1,4.3
	c-38.1,32.7-70.6,78.5-96.1,134.5c-48.8,2.5-96.4,1.1-142.4-4.2C929.5,2304.1,974.2,2262,1015.9,2234.9z M1193.9,2358.7
	c50.7-10.7,102.1-25.3,153.6-43.4c-6,56.8-2.9,123.2,8.3,193.7c-62.3,22.1-124.5,39.9-185.9,52.9
	C1168.8,2487.2,1176.4,2416.8,1193.9,2358.7z M1354.8,2312.7c51.9-18.6,104-40.9,155.7-66.9c4.2,52.5,17.6,114.5,38.2,180.6
	c-61.6,31-123.7,57.7-185.5,80C1351.9,2435.5,1348.7,2368.9,1354.8,2312.7z M1517.2,2242.4c52-26.4,103.6-56.5,154.5-90.2
	c12.7,39.9,34.1,92.7,69,162.5c-61,40.4-122.9,76.6-185.3,108.3C1534.7,2356.5,1521.3,2294.4,1517.2,2242.4z M1677.4,2148.4
	c50.6-33.8,100.3-71.2,148.7-112c22.8,34.7,59.6,85.5,100.1,138.9c-58.6,49.5-118.8,94.8-180,135.7
	C1711,2240.5,1689.8,2187.7,1677.4,2148.4z M1831.3,2032c35.4-30.1,70.2-62.1,104-95.9c12.5-12.5,24.7-25.1,36.7-37.9
	c30.7,25.5,72.4,61.6,128,112.3c-14.5,15.4-29.3,30.8-44.4,45.9c-40.4,40.4-81.9,78.5-124.2,114.5
	C1890.8,2117.4,1853.9,2066.5,1831.3,2032z M2060.3,2061.1c15.2-15.2,30.1-30.6,44.7-46.1c32.3,29.5,59.3,54,82.8,75.4
	c29.2,26.6,53.2,48.4,75.6,69c-16.8,17.9-34,35.7-51.5,53.2c-46.4,46.4-94,90.1-142.6,131.4c-39-45.9-88.4-108.1-133.8-167.8
	C1977.9,2140.1,2019.7,2101.7,2060.3,2061.1z M2192.2,2085.5c-23.5-21.4-50.4-45.9-82.7-75.3c54-57.7,103.7-117.4,149-178.4
	c52.9,31.8,114.1,71.6,178.5,120.1c-51.4,69.3-107.8,137.2-169.1,202.8C2245.4,2134,2221.5,2112.2,2192.2,2085.5z M2262.5,1826.4
	c44.8-60.7,85.3-122.7,121.3-185.4c51.9,21.4,114,51.2,195.3,93.9c-41,71.6-87.1,142.3-138.2,211.6
	C2376.6,1898,2315.5,1858.1,2262.5,1826.4z M2381,1632.6c-68.8-28.1-119.6-41.5-173.4-51.3c29.4-51.7,55.2-103.9,77.3-156.2
	c48.2,0.9,111.3,4.9,188.6,21.2C2446.9,1508.6,2416.1,1570.9,2381,1632.6z M2287.6,1418.4c21.6-51.8,39.5-103.7,53.6-155.1
	c47.4-10.5,109.9-15.8,199.9-10.7c-17.2,62.1-38.9,124.7-65.1,187.3C2399,1423.6,2336,1419.4,2287.6,1418.4z M2343.1,1256
	c13.7-51.1,23.7-101.7,29.9-151.4c57.8-22,128.8-37.5,206.6-43.3c-7.6,60.7-19.9,122.4-36.8,184.7
	C2453.6,1240.8,2390.9,1245.8,2343.1,1256z M2374,1097.2c5.9-49.9,7.9-98.8,6-146.4c66.1-34.1,135.7-58.3,208.1-72.6
	c2.2,57.3-0.3,116.3-7.5,176.3C2502.9,1060.2,2432.1,1075.5,2374,1097.2z M2379.7,943.5c-2.3-47.3-8.4-93.1-18.5-137.1
	c58.4-42.5,126.7-76.3,204.6-100.9c12.2,53.2,19.5,108.7,22.1,165.9C2515.4,885.6,2445.9,909.6,2379.7,943.5z M2359.5,799.3
	c-10.5-43.4-24.9-84.9-43.2-124.1c57.2-51.3,124.6-95.3,195.4-127.8c22.4,47.8,40,98.5,52.5,151.5
	C2486.5,723.5,2418.1,757,2359.5,799.3z M2353.7,803.5c-52.7,38.9-97.3,85-133.6,138.1c-8.7-34.7-20.5-67.9-35.5-99.4
	c6.9-13.9,14.6-27.7,23.3-41.5c27.1-43,62.4-83.9,103.1-121.1C2329.2,718.9,2343.5,760.3,2353.7,803.5z M2202.3,797.3
	c-7.8,12.5-14.9,25-21.3,37.6c-15.4-31-33.8-60.1-55.5-87.1c23.9-60.8,61.3-124.5,113.8-184.6c27.1,34.1,50,71,68.8,110.3
	C2266.3,711.5,2230,753.2,2202.3,797.3z M2120.8,742c-9.2-11.1-18.7-21.9-29.1-32.2c-12.3-12.3-25.3-23.5-38.7-34.2
	c17.8-64.4,47.9-134.5,95.7-202.7c16.8,13.3,32.9,27.6,48.2,42.9c13.5,13.5,26.1,27.6,38.1,42.2
	C2182.6,617.9,2145.2,681.3,2120.8,742z M2047.5,671c-27.8-21.5-57.7-39.8-89.6-54.9c13.8-72.9,40-145.3,77.3-213.5
	c38.5,18.1,74.8,40.1,108.3,66.1C2095.9,536.8,2065.6,606.7,2047.5,671z M2045.6,678.1c-20.8,77.3-24.2,146-19,193.4
	c-22.6-17.9-47.1-33-73.2-45.4c-10.5-65.8-9.1-134.5,3.2-203.1C1988.2,638.1,2018,656.4,2045.6,678.1z M1946.2,822.5
	c-26.2-11.9-53.9-21.1-82.9-27.8c-13.6-57.4-20-130.1-14.1-209.4c35.3,8.3,69.1,19.8,101.1,34.4
	C1937.9,688.2,1936.3,756.8,1946.2,822.5z M1755.9,782.1c-31.9-0.6-64.6,1.3-98,5.8c-24.5-64.5-41.8-135.5-51.7-212.6
	c40.6-5,80.4-6.9,119.1-5.6C1726,644.2,1735.9,717.2,1755.9,782.1z M1651.1,788.7c-33.2,4.8-67,12-101,21.6c-2-4.5-4.1-9.1-6.4-14.2
	c-18.9-41.8-47.3-105.2-68.6-194.7c42-11.6,83.6-20,124.6-25.4C1609.5,653.1,1626.7,724.1,1651.1,788.7z M1537.6,798.9
	c2.2,4.8,4.1,9.1,6,13.4c-35.7,10.4-71.7,23.5-107.6,39.1c-32.5-55.6-64.1-121.1-92.8-203.6c41.9-17.7,83.8-32.6,125.4-44.4
	C1490.1,693.2,1518.7,756.8,1537.6,798.9z M1429.9,854c-34.4,15.2-68.7,32.7-102.7,52.6c-40.3-59.3-79.5-124.3-116-192.8
	c41.6-24,83.7-45.2,125.9-63.3C1365.8,732.8,1397.4,798.4,1429.9,854z M1321.4,910c-34.4,20.4-68.5,43-101.8,68
	c-71.7-88.7-120-158.2-135.3-180.7c39.7-29.5,80.2-56.3,121.2-80.2C1241.9,785.6,1281.1,850.6,1321.4,910z M1214.2,981.9
	c-33.3,25.3-65.9,52.9-97.5,82.6c-43.7-44.8-98.3-102.5-155.5-164c38.1-35.9,77.4-69,117.7-99.3
	C1094.3,823.9,1142.7,893.4,1214.2,981.9z M1111.8,1069.2c-7.4,7-14.8,14.1-22.1,21.4c-24.1,24.1-46.7,48.9-68.1,74.2
	c-56.3-49-115.9-98.9-173.1-145.1c25.6-30.3,52.6-60.1,81.4-88.9c8.7-8.7,17.6-17.1,26.5-25.6
	C1013.6,966.7,1068.2,1024.4,1111.8,1069.2z M1017.3,1169.9c-27.5,32.8-52.7,66.4-75.5,100.6c-70.6-51.3-141.1-97.2-187.6-125.1
	c27.1-41,57.2-81.3,90-120.6C901.4,1071,961,1120.9,1017.3,1169.9z M938,1276c-22.6,34.3-43,69-60.8,104
	c-74.2-44.6-135.4-77.3-198.7-104.5c21-41.9,45.1-83.5,71.9-124.5C796.9,1178.7,867.4,1224.7,938,1276z M874.2,1386
	c-17.6,35-32.7,70.2-45.4,105.3c-53.7-27.2-126.3-59.4-206.9-82.6c14.9-42.4,32.8-84.9,53.7-127.2
	C738.9,1308.7,800,1341.3,874.2,1386z M826.6,1497.6c-12.2,34.4-21.9,68.6-29.2,102.4c-65.6-26.4-139-46.8-212-59.9
	c8.4-41.3,19.9-83.1,34.3-125.1C700.5,1438.1,773.1,1470.4,826.6,1497.6z M795.9,1606.6c-7.1,34.2-11.7,68-13.7,101
	c-69.4-23.8-145.5-40.5-213-42.1c1.9-38.9,6.9-78.6,14.8-118.9C657,1559.7,730.4,1580.2,795.9,1606.6z M781.8,1714.4
	c-1.5,30.7-0.8,60.7,2.2,89.8c-58.2-15.3-128.3-25.3-211.5-23.8c-4-35-5.2-71.2-3.6-108.2C636.4,1673.7,712.6,1690.5,781.8,1714.4z
	 M590.6,1895.7c-52.5,9-130.3,23.1-218.5,64.4c-13.5-42.1-22.9-86.2-28.5-131.9c67.6-22.6,144.7-39.1,223.2-41.1
	C571.5,1824.8,579.4,1861.1,590.6,1895.7z M592.7,1902.1c11.2,33.4,25.5,65.1,42.9,95c-63.1,15.7-132.6,43.5-207.4,88.9
	c-22.1-37.4-40.1-77.3-54.1-119.3C462.5,1925.1,540.5,1911.1,592.7,1902.1z M639.2,2003.1c18.5,30.7,40.4,59.2,65.8,85.3
	c-69.1,23-135,58.9-194.4,104.9c-30.4-31-56.6-65.1-78.8-101.6C506.7,2046.2,576.2,2018.5,639.2,2003.1z M510.2,2202.5
	c31.1,31.1,65.3,58,102,80.9c-52.6,53.5-98.2,118.4-133.9,192.5c-45.4-27.7-87.7-60.5-126-98.6c42.5-67.3,96.4-126.6,157.7-175
	C510,2202.3,510.1,2202.4,510.2,2202.5z M618,2286.9c37.7,22.9,78.1,41.6,120.7,56.1c-29.7,38.6-76.4,108.4-111.5,201.8
	c-50.5-16.9-98.4-38.8-143.2-65.5C519.7,2405.1,565.3,2340.3,618,2286.9z M745.4,2345.2c42.1,13.8,86.3,23.7,132.1,29.6
	c-40.7,67.5-68.1,137.6-85,207.2c-55.1-6.9-108.3-18.6-159-35.1C668.8,2453,716.1,2383.1,745.4,2345.2z M884.7,2375.7
	c46.3,5.5,94.2,7.1,143.3,4.8c-26,59.1-44.3,129.1-52.7,207.6c-60.3,3.2-119.2,1.5-176.1-5.3
	C816.1,2513.3,843.6,2443.2,884.7,2375.7z M981.3,2594.4c59.6-3.4,120.4-11.5,182.1-24.3c1.7,71.8,11.4,147.2,28.1,219.4
	c-70.5,14.4-140.1,23.4-208.1,27C974.8,2749.1,973.1,2674.7,981.3,2594.4z M1170,2568.7c61.7-13.1,124.2-30.8,186.8-53
	c11.4,68.8,30.3,141.3,55.7,212.3c-71.9,25.3-143.6,45.5-214.5,60.2C1181.2,2716,1171.6,2640.5,1170,2568.7z M1364.1,2513.1
	c62.2-22.4,124.5-49.1,186.5-80.2c20.7,65.3,48.3,134.3,81.1,202c-70.5,35.2-141.5,65.5-212.3,90.7
	C1394.3,2654.6,1375.5,2581.9,1364.1,2513.1z M1557.4,2429.4c62.7-31.8,125-68.1,186.3-108.7c33,65.3,70,128.2,108.1,186.8
	c-70.2,46.4-141.6,87.9-213.6,124.1C1605.6,2564,1578.1,2494.7,1557.4,2429.4z M1749.3,2316.9c61.6-41.1,122.1-86.6,181-136.3
	c45.4,59.7,94.7,121.9,133.8,167.8c-67.3,56.8-136.4,108.6-206.8,155.4C1819.2,2445.1,1782.2,2382.2,1749.3,2316.9z M2068.4,2353.4
	l1.2,1.4c40.5,47.5,92.1,107.8,145.2,167.5c-72.2,60.8-147,116.8-223.6,167.7c-41.4-52.4-86.4-113.6-130.3-180.7
	C1931.5,2462.4,2000.9,2410.4,2068.4,2353.4z M2074.6,2350.5l-1.2-1.4c48.8-41.4,96.6-85.3,143-131.7c17.6-17.6,34.8-35.4,51.7-53.4
	c47.4,43.6,89.5,83,163,153.2c-18.5,19.7-37.2,39.3-56.4,58.5c-50,50-101.8,97.4-155,142.3C2166.8,2458.3,2115.2,2398,2074.6,2350.5
	z M2272.8,2159.1c61.5-65.8,118-133.8,169.5-203.3c71.3,53.9,126.4,96.4,176.1,137.4c-55.9,75.5-117,148.7-182.7,219.1
	C2362.3,2242.1,2320.2,2202.6,2272.8,2159.1z M2446.3,1950.4c51.3-69.5,97.6-140.6,138.7-212.4c62.7,33.2,128.1,74.9,188.1,119.2
	c-45.1,78.4-95.4,155.5-150.7,230.6C2572.7,2046.8,2517.6,2004.3,2446.3,1950.4z M2582.4,1729.1c-81.1-42.6-143.3-72.4-195.3-93.9
	c35.3-62.1,66.3-124.8,92.8-187.6c60.9,13.2,130.4,34.1,208.1,67.1C2657.9,1586.5,2622.7,1658.2,2582.4,1729.1z M2482.6,1441.3
	c26.2-62.9,48.1-125.8,65.3-188.3c72.8,4.6,145.3,17.5,217.2,38.8c-19.5,71.9-44.3,144.3-74.4,216.7
	C2613,1475.6,2543.5,1454.6,2482.6,1441.3z M2549.6,1246.5c16.9-62.7,29.2-124.8,36.8-185.8c70.1-4.7,145.5-1.5,221.6,12.2
	c-8.3,69.8-22.1,140.8-41.3,212.5C2694.9,1264.1,2622.3,1251.1,2549.6,1246.5z M2587.2,1053.9c7.1-60.3,9.6-119.5,7.4-177
	c71.3-13.4,145.4-17.2,221.8-11.3c2.8,65.2,0.3,132.2-7.5,200.6C2732.7,1052.6,2657.4,1049.3,2587.2,1053.9z M2594.3,870.2
	c-2.6-57.5-10-113.2-22.3-166.7c75.5-23.2,147.3-35,217.9-35.2c14.3,61.1,22.9,124.9,26.1,190.7
	C2739.7,853.1,2665.6,856.9,2594.3,870.2z M2570.6,697c-12.7-53.2-30.3-104.1-52.8-152.2c69.4-31,141.6-51.1,210.2-55.8
	c25.8,54.7,46,112.6,60.5,173.1C2717.4,662.5,2645,674.1,2570.6,697z M2514.9,538.8c-22.5-47-49.9-91.2-82.1-132.1
	c63.3-35.3,131.3-61,198.6-74c36.7,46.4,67.8,96.6,93.5,149.9C2656.4,487.7,2584.3,507.8,2514.9,538.8z M2508.9,541.5
	c-70.8,32.4-138.2,76.4-195.6,127.5c-19-39.4-42.1-76.5-69.4-110.7c25.5-28.7,54.3-56.6,87-82.8c30.1-24.2,62.4-46.1,96.1-65.3
	C2459.2,450.7,2486.4,494.7,2508.9,541.5z M2326.6,470.2c-32.6,26.3-61.5,54.2-87.1,82.9c-11.9-14.5-24.5-28.6-37.9-42
	c-15.6-15.6-31.9-30.1-49-43.6c41.6-58.2,96.1-114.9,166.9-165.4c19.2,15.4,37.7,31.9,55.3,49.5c17,17,32.9,34.8,47.8,53.2
	C2389.1,424.1,2356.7,446,2326.6,470.2z M2147.4,463.4c-33.8-26.1-70.3-48.3-109-66.5c20.4-36.5,43.8-71.8,70.4-105.1
	c22.4-28,46.7-53.3,72.3-76c47.4,22.4,91.9,49.7,133.1,82C2243.5,348.4,2189.1,405.1,2147.4,463.4z M2103.6,287.6
	c-27,33.7-50.6,69.5-71.2,106.4c-40.3-18.4-83-32.7-127.6-42.8c18-43.2,40.4-86.1,68.7-127.2c16.3-23.7,32.8-44.4,49.3-62.8
	c53.1,12.3,103.9,29.4,151.8,51.5C2149.5,235.1,2125.6,260.1,2103.6,287.6z M2029.1,399.8c-37.2,68.1-63.4,140.4-77.4,213.3
	c-32.3-14.7-66.4-26.1-102-34.3c6-70.9,22.2-146.7,52.5-221.5C1946.6,367.4,1989.1,381.5,2029.1,399.8z M1843.2,577.5
	c-35.8-7.9-73-12.5-111.3-14.1c-0.1-75.7,9.5-152.6,28.1-224.2c46.7,1.8,92,7.3,135.6,16.8C1865.5,430.7,1849.2,506.5,1843.2,577.5z
	 M1725.2,563.1c-39-1.3-79,0.6-119.8,5.7c-6.1-50.7-9.1-134.7,1.5-222.4c49.8-6.3,98.7-8.9,146.2-7.5
	C1734.7,410.6,1725.2,487.5,1725.2,563.1z M1598.8,569.5c-41.2,5.4-83,13.9-125.2,25.5c-13.8-60-24.4-131.4-26.7-216
	c51.7-14.4,103.1-25,153.5-31.8C1589.7,435.1,1592.7,518.8,1598.8,569.5z M1467.1,596.9c-41.8,11.8-84,26.8-126.1,44.6
	c-13.7-39.8-26.7-83.2-38.8-131.6c-6.6-26.2-11.8-51-15.9-74.4c51.3-21.9,102.8-40.1,153.8-54.7
	C1442.7,465.5,1453.3,536.9,1467.1,596.9z M1295.8,511.6c12.2,48.8,25.3,92.6,39.1,132.6c-42.5,18.3-84.9,39.5-126.8,63.7
	c-34.9-66-63.5-131.2-84.4-190.6c51.7-30,104.1-56.4,156.5-79C1284.2,461.4,1289.4,485.8,1295.8,511.6z M1202.3,711.2
	c-41.2,24.1-81.9,50.9-121.8,80.6l-7.4-10.9c-41.7-61.1-76.4-114.8-104.3-161.2c48.7-36.4,98.5-69.4,148.9-98.9
	C1140.3,584.1,1170.3,650.7,1202.3,711.2z M1067.6,784.7l7.5,11c-40.5,30.4-80.1,63.8-118.5,99.9c-45.8-49.3-93.1-100.8-137.6-150.1
	c46.7-44,94.9-84.6,144.2-121.7C995.8,677.9,1033.3,734.5,1067.6,784.7z M951.8,900.3c-8.9,8.5-17.9,16.9-26.6,25.7
	c-29,29-56.2,58.9-81.9,89.4c-58.6-47.3-114.5-90.5-161.6-124.9c31.2-37,64.4-73.2,99.6-108.4c10.9-10.9,21.9-21.5,32.9-32
	C858.7,799.5,906,851,951.8,900.3z M839,1020.6c-33,39.6-63.2,80.1-90.5,121.4c-43.3-25.6-111.9-64.5-182.5-97.2
	c33.6-50.7,70.7-100.6,111.4-149.1C724.4,930,780.3,973.2,839,1020.6z M744.7,1147.5c-27,41.2-51.2,83.1-72.3,125.3
	c-59.9-25.4-122.1-46.2-199.5-67.9c26.1-52,56-103.7,89.4-154.6C632.7,1082.9,701.4,1121.8,744.7,1147.5z M669.5,1278.9
	c-21,42.5-39,85.3-53.9,127.9c-78.3-22.1-147.5-35.7-211.3-41.4c18.2-51.5,40.1-103.1,65.6-154.4
	C547.4,1232.7,609.7,1253.5,669.5,1278.9z M613.4,1413.1c-14.5,42.2-26,84.2-34.4,125.8c-77.2-13.5-153.6-18.7-219.6-14.1
	c10.5-50.5,24.7-101.6,42.5-152.9C465.7,1377.5,534.9,1391,613.4,1413.1z M577.6,1545.4c-7.9,40.6-12.9,80.7-14.9,119.9
	c-84.5-1.1-158.5,4.2-223.8,16.3c2.5-49,8.9-99.2,19.2-150.1C423.9,1526.7,500.3,1531.9,577.6,1545.4z M562.3,1672
	c-1.5,37.1-0.3,73.4,3.7,108.5c-78.4,2.1-155.5,18.5-223.2,41.1c-4.8-43.1-6.2-87.6-4.2-133.1C403.7,1676.3,477.7,1670.8,562.3,1672
	z M366.1,1963c-59.2,28.5-122.9,69.4-186.5,129.6c-16.7-51.3-28.5-105.2-35.3-161.1c35.5-31.4,105.9-71.2,193.1-101.2
	C342.9,1876.4,352.5,1920.7,366.1,1963z M368.1,1969.5c14.1,42.3,32.2,82.4,54.4,120c-72.9,45-131.2,97.1-175.8,152.3
	c-26.5-44.5-48.1-92.1-65-142.1C245.3,2039.1,308.9,1998,368.1,1969.5z M426,2095.1c22.4,36.8,48.7,71,79.3,102.3
	c-61.3,48.5-115.2,107.8-157.9,174.9c-37.4-38-69.7-79.7-97-124.5C294.8,2192.5,353,2140.2,426,2095.1z M348.5,2382.9
	c38.6,38.2,81.1,71.1,126.8,98.9c-35.9,75.9-55.6,144.3-64.4,205.4c-51.3-31.3-99-68.2-142.6-111c10.1-47.3,28.3-99.2,58.2-155.4
	C333.5,2408,340.9,2395.4,348.5,2382.9z M481.1,2485.4c45,26.8,93.1,48.7,143.8,65.7c-22.8,62.3-40,134.8-43.6,215.3
	c-57.8-19.5-112.7-44.5-164.1-75.2C425.6,2630,445.1,2561.5,481.1,2485.4z M797.6,2589.3c57.1,6.8,116.3,8.6,177,5.4
	c-8.1,80.3-6.4,154.7,2.2,222.1c-67.9,3.3-134.3,1.1-198.4-6.6C774.6,2740.1,779.9,2665,797.6,2589.3z M977.6,2823.4
	c10.9,81,31.8,151.8,57.5,210.5c-73.3,3.8-144.9,1.6-214.3-6.8c-21.7-60.1-37.4-132-42.1-210.1
	C843,2824.6,909.5,2826.7,977.6,2823.4z M984.3,2823c68.3-3.7,138.1-12.7,208.8-27.1c17.9,75.4,43.6,146.9,75.9,206.8
	c-76.7,16.1-152.5,26.4-226.8,30.7C1016.3,2975,995.3,2904.2,984.3,2823z M1199.5,2794.6c71.1-14.8,143-35,215.2-60.4
	c25.4,70,57.1,138.4,94,200.3c-77.9,27.9-155.8,50.3-232.9,66.9C1243.3,2941.6,1217.5,2870,1199.5,2794.6z M1421.6,2731.8
	c71.1-25.3,142.3-55.7,213.1-91c32.9,67.2,70.8,132.8,111.9,191.7c-76.6,38.5-154,71.7-231.5,99.7
	C1478.5,2871,1447,2802.3,1421.6,2731.8z M1641.1,2637.5c72.2-36.4,143.8-77.9,214.3-124.5c43.8,67,88.8,128.3,130.2,180.7
	c-76.3,50.4-154.2,95.8-233,135.7C1711.8,2771,1674,2705.2,1641.1,2637.5z M1989.3,2698.4c51.3,64.5,96.8,115.1,127.5,146.2
	c-77.2,52-156,98.7-236,139.8c-35-33.7-76.6-81.7-125-150.4C1835.5,2793.8,1913.5,2748.4,1989.3,2698.4z M1994.9,2694.7
	c77.3-51.2,152.3-107.2,224.1-167.5c44.7,50.1,90.3,99.5,131.2,140.1c-74,63-150.1,120.9-227.8,173.5
	C2091.9,2810,2046.3,2759.4,1994.9,2694.7z M2224.2,2522.9c53.6-45.2,105.6-92.7,155.4-142.5c19.2-19.2,38-38.8,56.5-58.6l11.9,11.4
	c44.8,42.8,88.7,84.7,125.8,121.6c-19.3,20.5-38.9,40.8-59,60.9c-51.9,51.8-105.1,100.9-159.4,147.4
	C2314.5,2622.4,2268.9,2573,2224.2,2522.9z M2452.5,2328.3l-11.9-11.4c65.2-70,126.2-143.4,182.6-219.8
	c49,40.6,93.1,80.2,142.8,128.3c-57.3,76.8-119.9,151.9-187.7,224.5C2543.6,2415.5,2501.4,2375,2452.5,2328.3z M2627.1,2091.7
	c54.8-74.7,105.2-151.9,150.6-231.2c55.8,41.4,106.6,85,146.2,125.9c-45.8,79.1-97.2,157.2-153.9,233.6
	C2720.3,2171.9,2676.2,2132.3,2627.1,2091.7z M2776.4,1851.5c-62.4-45.8-128.8-87.9-188.2-119.3c40.4-71.1,75.6-142.9,105.8-214.9
	c83.9,36,146.8,68.2,198.5,100.3C2859.2,1696.2,2820.4,1774.4,2776.4,1851.5z M2696.7,1511.1c30.1-72.6,55.1-145.2,74.6-217.3
	c69.3,21,137.9,49.5,205.4,85.8c-21.6,77.1-49,154.5-81.5,231.7C2843.4,1579.2,2780.5,1547.1,2696.7,1511.1z M2773,1287.4
	c19.2-71.9,33-143.2,41.4-213.2c71,13.3,142.5,35.5,210.9,69c-9.8,75.6-25.4,152.5-46.8,229.8
	C2911,1336.9,2842.3,1308.4,2773,1287.4z M2815.3,1067.6c7.9-68.6,10.5-135.9,7.7-201.4c87.5,7.5,157.6,26.6,213.3,50
	c2.7,71.6-0.8,145.2-10.1,220.1C2957.8,1103,2886.3,1080.8,2815.3,1067.6z M3030.4,781.1c-3.9-25.1-8.7-49.7-14.3-73.8
	c62.4,22.1,115.2,57.8,151.2,100.3c15,65.9,24,134.5,27.1,205.1c-28.7-29.6-77.1-69-151.7-101C3041,867.2,3037,823.6,3030.4,781.1z
	 M3023.8,782.1c6.4,41.4,10.3,83.7,12.2,126.7c-56.1-23.2-126.2-42.1-213.3-49.4c-3.1-65.9-11.7-129.9-26-191.2
	c71.1,0.5,140.9,12.6,212,36.4C3014.6,730,3019.7,755.8,3023.8,782.1z M2795.3,662c-14.5-60.7-34.6-118.7-60.2-173.5
	c84.3-4.9,151.5,4.7,204.5,20.8c28.7,58.8,51.2,121.5,67.4,187.8C2936.9,674.1,2866.7,662.4,2795.3,662z M2732,482
	c-25.6-53.5-56.6-103.9-93.1-150.6c65.2-11.7,129.5-11.5,188.2,3.6c42.4,51,78.6,106.5,108.4,166.1
	C2882.2,485.7,2815.2,476.9,2732,482z M2634.3,325.5c-18.2-22.8-37.8-44.8-58.7-65.7c-18.2-18.2-37.3-35.5-57.2-51.7
	c71.2-16.7,131.1-12.6,175.8-2.8c46.5,36.9,88.4,77.5,125.8,121.3C2761.7,313.2,2698.3,313.6,2634.3,325.5z M2570.9,264.5
	c19.9,19.9,38.6,40.7,56,62.4c-67.3,13.4-135.1,39.1-198.3,74.5c-15.3-18.9-31.5-37.1-49-54.6c-17.4-17.3-35.5-33.6-54.4-48.8
	c67-46.8,129.2-73.8,184.9-88C2531.3,227.1,2551.6,245.2,2570.9,264.5z M2319.8,293.7c-41.2-32.5-85.8-60-133.2-82.7
	c52.8-45.5,110.8-79.1,168.6-98.6c53.2,25.6,102.8,56.5,148.3,92.3C2448,219.6,2386.1,247,2319.8,293.7z M2180,207.9
	c-48-22.4-98.9-39.8-152.1-52.4c52.8-57.1,104.8-89,147-106.8c60.5,14.5,118,34.5,171.8,59.6C2289.3,128.6,2232,162.6,2180,207.9z
	 M2020.3,153.9c-53.7-12.1-109.7-19.4-167.4-21.8c37.6-51.4,82.3-88.9,132.1-110.6c62.1,3.4,122,11.6,179.1,24.7
	C2122,65.2,2071.4,97.8,2020.3,153.9z M2015.3,159.5c-15.9,17.9-31.7,37.9-47.4,60.7c-28.8,41.9-51.6,85.5-69.8,129.5
	c-43.8-9.6-89.4-15.2-136.4-17.1c15.1-56.1,35.5-108.8,61.4-154.4c8-14.1,16.4-27.3,25.3-39.8
	C1905.9,140.6,1961.8,147.6,2015.3,159.5z M1817.3,174.9c-26.4,46.5-47.2,100.3-62.4,157.5c-47.8-1.5-97,1-147.1,7.3
	c8.6-66.8,25.5-135.3,55.1-192.5c60.5-7.7,119.9-10.8,177.6-9C1832.4,149.7,1824.7,162,1817.3,174.9z M1601.1,340.5
	c-50.7,6.7-102.4,17.2-154.4,31.7c-1.7-81.7,10.7-142.4,27.3-186.9c61.1-16.9,121.7-29.3,181.2-37.3
	C1626.1,205.8,1609.6,274,1601.1,340.5z M1440,374.1c-51.3,14.6-103,32.8-154.6,54.7c-12.1-72.6-12.7-131.1-5.6-175.5
	c62-26.3,124-48.2,185.6-65.6C1449.5,232.7,1438.2,293.3,1440,374.1z M1115.4,514.4c-50.8,29.7-100.9,62.9-150.1,99.5
	c-34.4-57.8-57.8-103.9-70.1-138.1c59.8-44.6,120.8-85,182.6-121.1C1080.8,399.8,1094.8,455.5,1115.4,514.4z M959.8,618.1
	c-49.7,37.3-98.2,78.2-145.2,122.5c-46.1-51.1-77.9-88.3-98.9-113.8c56.4-53.1,114.6-102.1,174.2-146.9
	C903.6,518.5,929.3,567.1,959.8,618.1z M809.7,745.2c-11.1,10.6-22.2,21.3-33.1,32.2c-35.5,35.5-68.9,71.9-100.3,109.2
	c-52.1-37.8-94.1-66.7-126.6-84.6c37.7-44.7,77.8-88.5,120.4-131.1c13.4-13.4,27-26.6,40.7-39.5C731.9,657,763.7,694.2,809.7,745.2z
	 M671.9,891.7c-40.9,48.9-78.3,99.2-112.1,150.3c-52.6-24-105.8-44.2-150.2-52.8c40.8-61.9,86.1-122.7,135.6-181.9
	C581.3,826.9,626.7,858.9,671.9,891.7z M556.2,1047.5c-33.6,51.2-63.6,103.2-89.8,155.6c-72.2-19.9-127-25.1-167.6-22.7
	c31.3-62.4,67-124.4,107-185.5C449.7,1002.9,503.2,1023.2,556.2,1047.5z M463.4,1209.2c-25.6,51.8-47.6,103.8-65.9,155.7
	c-34.4-2.8-67.4-3.5-99.3-1.7c-30.3,1.7-57.8,5.7-82.2,11.6c22-62.5,48.5-125.2,79.4-187.5C335,1184.5,389.7,1189,463.4,1209.2z
	 M298.6,1369.9c31-1.7,63.1-1.1,96.6,1.5c-17.9,51.6-32.1,103-42.5,153.8c-62.8,5.1-132.4,19.1-190.7,44
	c12.5-61.6,29.6-124,51.3-186.7C238.4,1376,267.1,1371.6,298.6,1369.9z M351.3,1532.1c-10.2,51.1-16.6,101.6-19,150.8
	c-75.5,14.7-139.3,38.7-194.2,72.6c2.8-58,10.2-117.4,22.1-177.5C216.2,1553,284.8,1537.6,351.3,1532.1z M331.9,1689.8
	c-1.9,45.8-0.5,90.5,4.5,133.9c-86.2,29.5-156.2,68.6-193.2,100.1c-5.9-51.9-7.7-105.5-5.4-160.2
	C192.3,1729,256.2,1704.7,331.9,1689.8z M174.2,2097.6c-54.3,52.4-85.8,106.2-103.9,153.9c-18.3-56.3-31.6-115.7-39.7-178
	c23.1-52.9,64.9-97.7,107.6-136.7C145.4,1992.7,157.3,2046.4,174.2,2097.6z M176.5,2104.7c17.1,50.3,39.1,98,65.8,142.6
	c-45.3,57.3-76.1,117.8-93.7,176.9c-30.4-50.5-55.4-104.9-75-162.7C90.6,2213.6,121.6,2158.6,176.5,2104.7z M246,2253.5
	c27.5,44.9,60,86.6,97.7,124.6c-8.1,13-15.8,26.1-23,39.7c-29.3,55.1-47.6,106.2-58,153c-41.8-42-78.3-88.5-109.4-138.9
	C170.2,2372.4,200.7,2311.4,246,2253.5z M266.8,2584c43.8,42.6,91.7,79.3,143.1,110.4c-10,76.7-2.6,141.5,12.5,194.4
	c-55.6-35.3-106.9-76.8-153.9-124.3C257.2,2716.8,252.6,2656,266.8,2584z M416.2,2698.3c51.6,30.6,106.8,55.5,164.8,74.9
	c-1.2,34,0,69.4,4.4,106c4.4,36.9,12,69.7,21.7,98.9c-62.5-21.9-121.3-49.9-176.2-83.9C414.9,2841.5,406.5,2776.2,416.2,2698.3z
	 M592,2878.4c-4.3-35.6-5.5-70-4.4-103.1c58.8,19.2,120.5,32.7,184.4,40.8c4.6,77.9,20.1,149.7,41.5,210c-8.3-1.1-16.6-2-24.9-3.2
	c-60.6-9.1-118.4-23.2-173.6-42C604.8,2950.9,596.6,2917,592,2878.4z M787.6,3029.5c9.4,1.4,18.9,2.5,28.4,3.7
	c26.6,72,65.7,120.7,102.7,153c-68.7-8.7-135.2-23-198.9-43.2c-31.9-28.3-74-77.1-102-154.1C671.8,3006.9,728.4,3020.5,787.6,3029.5
	z M823.5,3034.1c69.1,8.1,140.8,10.2,214.6,6.1c21.4,47.2,45.8,86.5,70.7,116.5c12.1,14.6,24,27,35.5,37.8
	c-73.2,3.5-144.5,1.3-213.6-6.7C892.9,3156.7,851.6,3108.2,823.5,3034.1z M1113.9,3152.4c-24.1-29.1-47.9-67.1-68.7-112.7
	c73.9-4.4,149.7-14.9,226.9-31.4c36.2,65.6,74.2,117.6,112.4,155c-78.6,16.4-155.6,26.4-230.7,30.6
	C1140.9,3182.4,1127.6,3168.9,1113.9,3152.4z M1279,3007c76.5-16.6,154.3-39.2,232.8-67.5c42.9,71.1,82.6,120.4,118,154.4
	c-41.2,14.7-82.5,28.1-123.9,39.9c-38.2,10.8-76.1,20-113.7,28C1353.9,3124.9,1315.6,3073,1279,3007z M1518.2,2937.2
	c28.8-10.5,57.6-21.5,86.5-33.5c48.8-20.3,97.2-42.6,145.1-66.6c48,68.2,89.4,116.5,124.6,150.7c-78.1,39.8-157.2,74.6-236.9,103.5
	C1601.8,3058,1561.7,3009,1518.2,2937.2z M1879.5,2992.6c44.4,42.2,78.5,61.5,102.7,69.9c-72.7,36.4-146.3,68.3-220.4,95.3
	c-28-2.6-68.7-16.4-118.8-61.4C1722.6,3067.3,1801.6,3032.5,1879.5,2992.6z M1886,2989.3c79.8-41.2,158.5-87.9,235.7-139.9
	c40.5,40.2,71.6,64.8,97.4,76c-74.3,49.1-150.5,93.3-227.8,132.4C1968.3,3051.3,1933.4,3033.8,1886,2989.3z M2127.3,2845.6
	c77.7-52.6,153.7-110.5,227.7-173.5c46,45.4,73.5,70,91.9,82.8c-71.3,60-145.1,115.7-221,166.1
	C2204.1,2912.4,2173.4,2891.2,2127.3,2845.6z M2360.1,2667.6c54.3-46.5,107.5-95.5,159.4-147.4c20.1-20.1,39.7-40.4,59-60.9
	c37.8,37.7,68,69.8,84.2,91.6c-18.1,19.2-36.5,38.2-55.4,57.1c-50,50-101.8,97.2-155,142.3C2435,2738.6,2407.8,2714.7,2360.1,2667.6
	z M2583,2454.5c67.8-72.5,130.5-147.6,187.8-224.5c47,46,69,77.7,79,98.1c-55.7,74.6-116.4,147.4-182.6,218
	C2651.1,2524.5,2622.3,2493.7,2583,2454.5z M2774.8,2224.7c56.6-76.3,108-154.3,153.9-233.3c37.3,39.3,63.6,75.8,73.4,105.5
	c-44,77-93.5,152.1-147.8,225.3C2843,2300.7,2820.2,2269.1,2774.8,2224.7z M2927.5,1980c-40.5-41.4-91.8-84.7-146.6-125.2
	c43.5-76.6,82.4-154.9,116.2-234.4c59.7,37.6,104.7,75.4,150.5,119.5C3013.3,1820.4,2973.2,1900.7,2927.5,1980z M2899.7,1614.2
	c1.8-4.2,3.6-8.3,5.4-12.5c30.6-73.7,56.1-147,76.6-219.3c43.8,24,105.1,65.7,151.9,114.8c-22,78.4-49.9,157.4-83.2,236.2
	C3004.6,1689.4,2959.5,1651.7,2899.7,1614.2z M2983.5,1375.7c21.8-77.8,37.6-154.5,47.6-229.6c72.5,36.3,120.7,73.6,152.6,107.3
	c-9.9,77.5-25.9,156.3-47.9,235.7C3076,1428.1,2998.4,1383.9,2983.5,1375.7z M3032.1,1139.1c9.7-75.3,13.4-148.9,11-220.1
	c76.4,33.3,124.6,74.5,151.7,103.6c2.7,72.1-0.7,146.2-9.9,221.6C3152.1,1211.1,3103.7,1174.6,3032.1,1139.1z M3198.2,839.6
	c-7-12.1-15.3-23.8-24.8-35.1c-12.3-53.5-28.5-105.2-48.7-154.9C3154.4,710.4,3178.9,773.9,3198.2,839.6z M3163.9,793.6
	c-37.2-40-89.2-73.4-149.6-94.1c-15.8-66.2-37.9-128.8-66-187.6c82.3,26.8,128.4,68.9,149.4,93.1
	C3126,664.7,3148,727.8,3163.9,793.6z M2985.4,431.6c29.4,36,56.4,73.6,80.8,112.6c7.7,13.5,15,27.3,22,41.2
	c-26.4-25.6-72.2-59.4-143.9-81.6c-29.1-59.3-64.5-114.6-105.9-165.5C2894.5,354.6,2944.9,384.9,2985.4,431.6z M2910.7,349
	c11,11,21.6,22.2,32,33.6c-33.6-25.3-71.3-42.8-111.8-53.4c-36.2-43.3-76.8-83.5-121.7-120.2c39.6,10.5,64.4,24.6,70.9,28.5
	C2826.1,270.9,2869.7,308.1,2910.7,349z M2747.5,214.4c-13.5-5.3-30.4-10.8-50.3-15.3c-33.2-26.3-68.8-50.8-106.4-73.4
	C2645.3,151.1,2697.6,180.7,2747.5,214.4z M2536,102.6c52.7,27.8,101.5,59.1,146.3,93.5c-45-8.2-103-10-170.6,6.7
	c-45.1-36.1-94.3-67.2-147.1-93.2C2424.3,91.1,2483.4,87.9,2536,102.6z M2502.9,89.1c-46.6-6.1-96.7-0.3-147,16.3
	c-53.4-25.5-110.4-45.9-170.4-60.9c39.7-15.2,68.9-17.7,79.1-18.1C2346.8,39.9,2426.6,60.7,2502.9,89.1z M2026.5,7.4
	c72.4-0.1,143.7,4.8,213.3,15c-16.4,2.8-39,8.4-65.4,19.3c-55.8-13.3-114.1-22.1-174.6-26.1C2008.5,12.4,2017.4,9.7,2026.5,7.4z
	 M2002.2,7.7c-6.1,2.1-12.2,4.4-18.2,7c-29.2-1.6-58.9-2.1-89-1.5C1930.9,10.2,1966.6,8.4,2002.2,7.7z M1783.8,26.9
	c64.2-6.7,126.7-8.8,187.2-6.2c-47.4,23.3-90,60.7-126,111c-58-2-117.6,0.8-178.4,8.3C1694.1,89.7,1732.1,48.9,1783.8,26.9z
	 M1545.4,79.8c72.4-21.3,144.9-38,217-49.9c-45,24.6-78.8,64-103.7,111.2c-59.8,7.8-120.5,20-181.8,36.7
	C1502.6,113.6,1536.6,86.1,1545.4,79.8z M1329.5,157.4c66-28.1,132.4-52.3,199-72.6c-16,14.7-41,44-60.4,95.3
	c-62,17.3-124.6,39.2-187,65.5C1289.9,198.8,1307.6,169.2,1329.5,157.4z M1107,268.4c65.8-37.8,132.7-71.6,200.2-101.3
	c-14.9,17.3-26.7,44.5-33.1,81.5c-63.6,27.1-127,58.7-189.8,94.8c-0.6-19.3,1.1-35.7,5.4-48.6C1093.5,283.1,1099.4,274.3,1107,268.4
	z M891.5,409.5c64.7-47.9,131-91.8,198.5-131.3c-2.6,4.4-4.9,9-6.7,14.5c-4.9,15-6.7,33.6-5.9,54.7
	c-62.4,36.3-124.1,76.9-184.5,121.9C882.9,439.1,882.4,419.1,891.5,409.5z M880.1,418c-3.2,13.4-0.1,32.4,7.5,55.3
	c-60.2,45.2-119.1,94.7-176.2,148.4c-16.6-20.2-25.6-32.2-29.2-36.9C746,524.6,812.1,469,880.1,418z M632.3,633.1
	c14.9-14.9,29.9-29.4,45.1-43.7c3.9,5.2,13,17.1,29.2,36.9c-13.8,13.1-27.6,26.4-41.2,40c-43.1,43.1-83.6,87.4-121.7,132.6
	c-19.4-10.2-35.2-16.1-47.5-17.2C538.8,730.8,584.2,681.2,632.3,633.1z M490.7,788.2c11.8-0.4,28.5,5.6,48.6,15.9
	c-50,59.8-95.6,121.3-136.7,183.8c-23.7-4-44.5-4.3-61,0.2C386.7,919.8,436.5,853,490.7,788.2z M335.6,997.2
	c16-6.8,37.7-7.4,63.1-3.5c-40.2,61.6-76.1,124.2-107.5,187.2c-36.5,3.1-60.6,12.4-75,21.9C251.6,1133.2,291.4,1064.5,335.6,997.2z
	 M208.2,1218.5c7.7-9.7,31.6-25.6,79.4-30.5c-30.9,62.7-57.4,125.8-79.3,188.7c-39.4,10.6-69.8,26.7-88.8,47
	C144.9,1354.8,174.5,1286.3,208.2,1218.5z M111.1,1446.9c13.8-27,47.4-48.6,94.4-62.2c-21.6,63-38.6,125.7-50.9,187.6
	c-45,20.2-82.5,47.2-103.9,81.7C66.6,1585,86.7,1515.8,111.1,1446.9z M40.8,1699.4c0.8-4.1,1.7-8.2,2.5-12.4
	c13.6-44.8,54.7-80.1,109.5-105.8c-11.7,60.5-18.9,120.2-21.5,178.5c-59.3,38.1-91.3,77.9-108.6,109.8
	C25.2,1814.2,31.2,1757.4,40.8,1699.4z M22,1886.6c14.5-32.1,45-76.5,109-118.6c-2.1,55-0.1,108.8,6.1,160.9
	c-41.7,37.8-83.1,81-108.1,131.9C22.6,2004.7,20.2,1946.6,22,1886.6z M17,1849.8c-0.7,11.5-1.2,22.9-1.6,34.3c-0.9,2-1.7,4-2.5,5.9
	C14.1,1876.6,15.5,1863.2,17,1849.8z M10.4,1921.6c0.9-4.4,2.3-10.2,4.5-16.9c-1,57.8,1.9,113.8,8.8,167.8
	c-6.5,15.1-11.4,30.8-14.5,47.2C5.4,2054.7,5.8,1988.5,10.4,1921.6z M47.1,2370.3c-16.9-67.8-28.4-137.6-34.8-209
	c-0.3-26.7,4.6-51.7,13.3-75.2c8.6,61.4,22.3,120,41,175.6C51.3,2305.8,47.4,2344.1,47.1,2370.3z M55.2,2401.3
	c-1.9-14.9-5.7-65,14.9-129.2c20,57.1,45.4,110.8,76,160.8c-15.5,56.2-19.1,110.8-11.8,160.2c-12.2-19.7-23.9-40-35.1-60.9
	C82.2,2489.6,67.5,2446,55.2,2401.3z M123,2587.5c4.7,7.8,9.5,15.5,14.3,23.1c0.9,4.3,1.9,8.6,2.9,12.8
	C134.3,2611.6,128.6,2599.6,123,2587.5z M150.9,2440.7c30.9,49.2,66.9,94.6,108,135.8c0.7,0.7,1.5,1.4,2.2,2.1
	c-14.4,69.7-11.4,129.3-1.3,177.1c-42.6-44.3-81.4-93.6-116.2-147.7C133.4,2557.2,135.4,2499.9,150.9,2440.7z M158.3,2657.6
	c-4-9.9-7.4-20.1-10.3-30.7c34.5,51.7,72.8,98.8,114.6,141.2c9.1,37.3,22.1,66.8,33.4,87.5C242.6,2794.3,196.7,2728,158.3,2657.6z
	 M348.2,2911.6c-8.2-8.2-16.3-16.6-24.2-25c-2.5-3-33.5-41.3-52.2-109.2c46.9,46.3,98.2,86.8,153.5,121.3
	c21.1,68,54.3,115,76.3,140.8C447.3,3001.8,395.9,2959.3,348.2,2911.6z M562.2,3078.5c-11.8-7.1-23.4-14.4-35-21.9
	c-8.8-7.9-62.2-58.9-93.2-152.7c54.8,33.3,113.5,60.7,175.7,82.2c25.3,72.2,63,120.9,94.5,151.5c-48.9-16.4-96.4-35.9-141.9-59.2
	C562.3,3078.5,562.3,3078.5,562.2,3078.5z M635.8,3119.2c26.5,10.9,53.3,21,80.7,29.8c6.2,5.4,12,10.1,17.2,14.1
	C700.3,3149.9,667.7,3135.3,635.8,3119.2z M761.2,3173.5c-4.7-2.7-15.2-9-28.9-19.9c62.9,19,128.3,32.6,195.8,40.6
	c23.4,18.9,45.3,31.5,62.2,39.5C911.4,3220.4,834.7,3200.4,761.2,3173.5z M1019.5,3238.3c-11.1-3.6-42.4-15.2-78.5-42.4
	c68,7.3,138.3,8.8,210.2,4.9c34.2,30.4,64.5,45.3,86.6,52.4C1163.7,3253.6,1090.7,3248.6,1019.5,3238.3z M1266.5,3252.7
	c-16.7-2-56.9-11.1-105.7-52.4c74.8-4.5,151.4-14.8,229.5-31.3c36.5,34.3,73.1,55.2,108.4,61.4
	C1420.6,3243.4,1343,3250.9,1266.5,3252.7z M1549.4,3221.2c-8.1,1.6-16.2,3.1-24.3,4.5c-40.6,1.4-83.8-18.6-127.2-58.5
	c36.3-7.8,72.9-16.7,109.8-27.1c42.7-12.1,85.2-25.9,127.7-41.1c45,41.6,82.9,58.6,111.6,64.2
	C1681.3,3186.5,1615.3,3205.8,1549.4,3221.2z M1731.5,3175.5c9.8-3.4,19.6-6.7,29.4-10.2c0.8,0.1,1.6,0.2,2.4,0.2
	C1752.6,3168.9,1742,3172.2,1731.5,3175.5z M1789.3,3156.8c-2.7,0.5-5.8,0.9-9.2,1.1c71.1-26.6,141.7-57.5,211.4-92.7
	c6.1,1.6,11.4,2.4,16,2.8C1935.3,3102.4,1862.4,3131.9,1789.3,3156.8z M2022.9,3060.5c-3.5,0.7-10.6,1.5-21.5-0.4
	c76.5-39.1,151.8-83,225.3-131.8c8.1,2.8,15.7,4.2,22.9,4.2C2175.5,2980.5,2099.7,3023.2,2022.9,3060.5z M2262.2,2924.5
	c-7.5,2-16.5,2.5-28.1-0.8c75-50.2,148-105.5,218.6-165c8.7,5.5,15.2,8,20.8,8.8C2405,2824.8,2334.4,2877.1,2262.2,2924.5z
	 M2675.2,2577.4c-15.9,16.9-32,33.6-48.5,50.1c-47.2,47.2-95.8,91.7-145.5,133.6c-5.7,0.5-12.1-0.4-23.1-7
	c52.8-44.8,104.3-91.7,153.9-141.3c18.6-18.6,36.7-37.4,54.6-56.3c5.8,8.5,9,15.1,8.9,19.3C2675.5,2576.5,2675.3,2577,2675.2,2577.4
	z M2858.1,2357.7c-53.6,73.3-112.6,144.5-176.8,213.2c-1.4-5-4.9-11.4-10.2-19.1c65.9-70.2,126.3-142.5,181.8-216.6
	C2858.5,2348.4,2858.3,2355.5,2858.1,2357.7z M3005.6,2127.8c-41.9,75.3-89.1,149.4-141.4,221.6c-0.8-5-2.7-11.6-6.7-20.4
	c53.9-72.6,103.1-146.9,147-223.1C3006.2,2113.8,3006.7,2121.1,3005.6,2127.8z M2932.3,1985c45.7-79.3,85.9-159.6,120.3-240
	c46.6,46.2,62,87,66.6,113c-32.7,78.5-70.2,155.5-112.7,230.8C2994.9,2058.2,2968.2,2022.4,2932.3,1985z M3120.8,1885.5
	c-30.8,77.3-66.8,153.9-108.2,229.4c-0.4-5.6-1.5-11.4-3.3-17.4c42-73.7,79.1-149.1,111.6-226.1
	C3121.3,1878,3121.1,1882.8,3120.8,1885.5z M3127.6,1868.2c-0.2-3-0.7-6.3-1.2-9.9c20.1-48.4,38.3-97.5,54.6-147.1
	C3165.6,1763.6,3147.8,1816,3127.6,1868.2z M3123.9,1846.7c-6.8-27.3-24.5-65.5-68.4-108.4c33.4-78.6,61.2-157.4,83.4-235.6
	c34.3,37.3,59.7,78.6,62.2,119.5C3179.7,1698.4,3154,1773.2,3123.9,1846.7z M3222.2,1541c-5.1,21.6-10.5,43.2-16.3,64.7
	c-7.4-39.7-33.1-77.6-64.7-110.9c22.1-79.2,38.2-157.7,48.4-235c46.4,51.6,55.1,93.5,56.7,107.9
	C3241.3,1425,3233.3,1482.9,3222.2,1541z M3248.2,1343.3c-6.7-22.4-22-55.4-57.4-93c9.4-74.8,13.1-148.3,10.9-219.8
	c32.9,38.6,43.7,76.2,47.2,96.6C3253.8,1197.9,3253.5,1270.2,3248.2,1343.3z"/>
</svg>
