<?xml version="1.0" encoding="utf-8"?>
<!-- Generator: Adobe Illustrator 27.2.0, SVG Export Plug-In . SVG Version: 6.00 Build 0)  -->
<svg version="1.1" id="Ñëîé_1" xmlns="http://www.w3.org/2000/svg" xmlns:xlink="http://www.w3.org/1999/xlink" x="0px" y="0px"
	 viewBox="0 0 229.5 229.5" style="enable-background:new 0 0 229.5 229.5;" xml:space="preserve">
<style type="text/css">
	.st0{fill:#FFFFFF;}
</style>
<polygon class="st0" points="141.2,114.7 229.5,99.7 140.3,107.8 221.6,70.4 137.7,101.5 206.5,44.3 133.5,96 185.2,23 127.9,91.8 
	159,7.8 121.6,89.1 129.8,0 114.7,88.3 99.7,0 107.8,89.1 70.4,7.8 101.5,91.8 44.3,23 96,96 23,44.3 91.8,101.5 7.8,70.4 
	89.1,107.8 0,99.7 88.3,114.7 0,129.8 89.1,121.6 7.8,159 91.8,127.9 23,185.2 96,133.5 44.3,206.5 101.5,137.7 70.4,221.6 
	107.8,140.3 99.7,229.5 114.7,141.2 129.8,229.5 121.6,140.3 159,221.6 127.9,137.7 185.2,206.5 133.5,133.5 206.5,185.2 
	137.7,127.9 221.6,159 140.3,121.6 229.5,129.8 "/>
</svg>
